<svg width="61" height="66" viewBox="0 0 61 66" fill="none" xmlns="http://www.w3.org/2000/svg">
<path d="M16.4741 38.5C17.1954 38.5 17.9005 38.2763 18.5073 37.8456L34.9519 26.1948C36.537 25.0711 36.9721 22.883 35.9432 21.2141C35.428 20.38 34.6267 19.8022 33.6856 19.5892C32.7463 19.3741 31.7785 19.5512 30.9668 20.0858L14.1475 31.1601C13.3313 31.6973 12.7738 32.5281 12.5768 33.5C12.379 34.4713 12.5664 35.4611 13.103 36.2846L13.4789 36.8624C14.0175 37.6892 14.8389 38.247 15.7925 38.4334C16.0201 38.478 16.2477 38.5 16.4741 38.5ZM15.3716 35.5736L14.9957 34.9945C14.798 34.6923 14.729 34.3301 14.8025 33.9747C14.8747 33.6179 15.0789 33.3136 15.3768 33.1166L32.1967 22.0422C32.412 21.9011 32.6566 21.8285 32.9063 21.8285C33.0013 21.8285 33.0982 21.8385 33.1938 21.8605C33.5379 21.9384 33.8319 22.1507 34.0205 22.4563C34.3978 23.068 34.2384 23.8702 33.6576 24.2816L17.2136 35.9324C16.9203 36.1408 16.5678 36.2154 16.2191 36.1481C15.8692 36.0796 15.5681 35.8759 15.3716 35.5736Z" fill="white"/>
<path d="M60.5 42.7395C60.5 37.8306 53.5531 28.2413 51.3571 25.3322V16.4235C51.3571 14.1897 49.8791 12.3173 47.8617 11.684V7.63307C47.8617 5.354 46.0156 3.5 43.7477 3.5H37.0512C34.7833 3.5 32.9372 5.354 32.9372 7.63307V11.4357H32.2799C31.2866 11.4357 30.3266 11.73 29.5039 12.2884L8.36487 26.6106C5.94458 28.2505 4.5 30.9809 4.5 33.913V57.9014C4.5 62.0916 7.89271 65.5 12.0636 65.5H43.7935C47.9644 65.5 51.3577 62.0916 51.3577 57.9014V53.2953C56.5148 52.5686 60.5 48.1182 60.5 42.7395ZM35.2234 7.63307C35.2234 6.62066 36.0434 5.79615 37.0512 5.79615H43.7477C44.7554 5.79615 45.5755 6.62066 45.5755 7.63307V11.4357H35.2234V7.63307ZM43.7935 63.2038H12.063C9.15223 63.2038 6.78491 60.8249 6.78491 57.9014V33.913C6.78491 31.7449 7.85347 29.7267 9.64334 28.5139L30.783 14.1911C31.2264 13.8908 31.7437 13.7312 32.2799 13.7312H46.3929C47.8689 13.7312 49.0715 14.9394 49.0715 16.4228V24.5017C49.0427 24.5306 49.0028 24.5425 48.9773 24.5747C47.982 25.8551 39.2563 37.2439 39.2563 42.7395C39.2563 48.3502 43.5914 52.953 49.0715 53.3702V57.902C49.0715 60.8249 46.7042 63.2038 43.7935 63.2038ZM49.8785 51.1147C45.2825 51.1147 41.5425 47.3575 41.5425 42.7395C41.5425 39.1577 46.922 31.1635 49.8785 27.1763C52.8363 31.1629 58.2144 39.155 58.2144 42.7395C58.2144 47.3575 54.4738 51.1147 49.8785 51.1147Z" fill="white"/>
<path d="M14.5 17.5C16.7052 17.5 18.5 15.6011 18.5 13.2665C18.5 11.3223 16.1016 7.92004 15.3666 6.92361C14.95 6.3588 14.05 6.3588 13.6334 6.92361C12.8984 7.92004 10.5 11.3223 10.5 13.2665C10.5006 15.6011 12.2948 17.5 14.5 17.5ZM14.5 9.60851C15.4723 11.0972 16.3005 12.6671 16.3005 13.2665C16.3005 14.3169 15.4924 15.1721 14.5 15.1721C13.5082 15.1721 12.7001 14.3169 12.7001 13.2665C12.7001 12.6684 13.5277 11.0978 14.5 9.60851Z" fill="#53BE21"/>
<path d="M8.5 7.26652C8.5 5.32228 6.10164 1.92004 5.36658 0.923615C4.94997 0.358795 4.05003 0.358795 3.63342 0.923615C2.89836 1.92004 0.5 5.32228 0.5 7.26652C0.5 9.60106 2.29484 11.5 4.5 11.5C6.70516 11.5 8.5 9.60106 8.5 7.26652ZM4.50063 9.17212C3.50818 9.17212 2.70013 8.31689 2.70013 7.26652C2.70013 6.66839 3.52832 5.09782 4.50063 3.60784C5.47231 5.09715 6.3005 6.66706 6.3005 7.26652C6.3005 8.31756 5.49308 9.17212 4.50063 9.17212Z" fill="#53BE21"/>
<path d="M54.4234 40.5C53.8281 40.5 53.3462 40.9825 53.3462 41.5771C53.3462 43.6549 51.6552 45.3464 49.5766 45.3464C48.9813 45.3464 48.5 45.8283 48.5 46.4229C48.5 47.0175 48.9813 47.5 49.5766 47.5C52.8427 47.5 55.5 44.843 55.5 41.5771C55.5 40.9825 55.0187 40.5 54.4234 40.5V40.5Z" fill="white"/>
<path d="M40.37 55.5H16.63C16.0052 55.5 15.5 55.9475 15.5 56.4997C15.5 57.0519 16.0052 57.5 16.63 57.5H40.37C40.9948 57.5 41.5 57.0519 41.5 56.4997C41.5 55.9475 40.9948 55.5 40.37 55.5Z" fill="white"/>
</svg>
