<svg width="75" height="58" viewBox="0 0 75 58" fill="none" xmlns="http://www.w3.org/2000/svg">
<path fill-rule="evenodd" clip-rule="evenodd" d="M42.0484 16.9893C42.573 14.9182 39.9279 13.5864 38.5999 15.253L23.9381 33.6542C22.9017 34.955 23.8205 36.8862 25.4758 36.8862H32.6471L30.3522 47.0628C29.8894 49.1154 32.4953 50.3898 33.8086 48.7532L49.0553 29.7551C50.1822 28.3509 49.017 26.2821 47.243 26.5376L39.3412 27.6752L42.0484 16.9893ZM26.8468 34.2361L38.7498 19.2974L36.5504 27.9795C36.2028 29.3513 37.3494 30.639 38.7401 30.4388L45.9587 29.3995L33.5433 44.8697L35.3937 36.6642C35.6742 35.4205 34.7362 34.2361 33.4706 34.2361H26.8468Z" fill="#53BE21"/>
<path fill-rule="evenodd" clip-rule="evenodd" d="M26.7152 6.79651V2.48837C26.7152 1.39019 25.8239 0.5 24.7242 0.5H11.1188C10.0192 0.5 9.1278 1.39019 9.1278 2.48837V6.79651H2.49103C1.39142 6.79651 0.5 7.68671 0.5 8.78488V17.0698C0.5 18.1679 1.39142 19.0581 2.49103 19.0581H4.15022V55.5116C4.15022 56.6099 5.04161 57.5 6.14126 57.5H69.5224C70.6221 57.5 71.5135 56.6099 71.5135 55.5116V19.0581H72.509C73.6087 19.0581 74.5 18.1679 74.5 17.0698V8.78488C74.5 7.68671 73.6087 6.79651 72.509 6.79651H65.8722V2.48837C65.8722 1.39019 64.9809 0.5 63.8812 0.5H50.6076C49.508 0.5 48.6166 1.39019 48.6166 2.48837V6.79651H26.7152ZM11.7825 3.15116V6.79651H24.0605V3.15116H11.7825ZM6.80493 54.8488V19.0581H10.4552C11.1883 19.0581 11.7825 18.4647 11.7825 17.7326C11.7825 17.0004 11.1883 16.407 10.4552 16.407H3.15471V9.44767H71.8453V16.407H64.5448C63.8115 16.407 63.2175 17.0004 63.2175 17.7326C63.2175 18.4647 63.8115 19.0581 64.5448 19.0581H68.8587V54.8488H6.80493ZM51.2713 6.79651H63.2175V3.15116H51.2713V6.79651Z" fill="white"/>
</svg>
