<svg width="63" height="64" viewBox="0 0 63 64" fill="none" xmlns="http://www.w3.org/2000/svg">
<path d="M61.6013 42.7445C58.9064 40.9367 56.0913 40.3626 53.4015 39.8037C52.3396 39.5871 51.3328 39.3807 50.361 39.1037C48.6646 38.3282 47.0302 37.4225 45.4722 36.3945C44.0747 35.49 42.63 34.6613 41.1444 33.912L38.4345 32.5977C38.1941 32.4828 37.9181 32.4687 37.6673 32.5584C37.4165 32.6481 37.2114 32.8343 37.0971 33.076C36.9829 33.3178 36.9688 33.5952 37.0581 33.8474C37.1473 34.0995 37.3325 34.3057 37.573 34.4206C37.573 34.4206 38.3143 34.768 40.2729 35.7248C41.696 36.4419 43.0789 37.2371 44.4153 38.1067C44.9162 38.4189 45.4171 38.7361 45.918 39.0483H38.0038C37.7381 39.0483 37.4833 39.1544 37.2954 39.3433C37.1075 39.5322 37.002 39.7883 37.002 40.0555C37.002 40.3226 37.1075 40.5787 37.2954 40.7676C37.4833 40.9565 37.7381 41.0626 38.0038 41.0626H49.8952C50.897 41.3496 51.9739 41.5662 53.0008 41.7776C55.5053 42.2812 58.12 42.8301 60.5143 44.4163C61.3007 44.9199 61.1504 47.1708 60.2037 49.1146C59.803 49.6836 59.3372 49.7441 58.2402 49.7038C58.2402 49.5376 58.2652 49.3664 58.2652 49.2002C58.3096 48.4784 58.2064 47.7551 57.9622 47.0749C57.7179 46.3947 57.3377 45.772 56.845 45.2451C56.3522 44.7182 55.7574 44.2983 55.0971 44.0113C54.4369 43.7243 53.7251 43.5762 53.0058 43.5762C52.2864 43.5762 51.5747 43.7243 50.9144 44.0113C50.2541 44.2983 49.6593 44.7182 49.1666 45.2451C48.6738 45.772 48.2936 46.3947 48.0494 47.0749C47.8051 47.7551 47.702 48.4784 47.7463 49.2002V49.6282H38.0038C37.7381 49.6282 37.4833 49.7343 37.2954 49.9232C37.1075 50.1121 37.002 50.3683 37.002 50.6354C37.002 50.9025 37.1075 51.1586 37.2954 51.3475C37.4833 51.5364 37.7381 51.6425 38.0038 51.6425H48.2973C48.7385 52.4985 49.4039 53.2171 50.2217 53.7206C51.0395 54.2242 51.9786 54.4937 52.9375 54.4999C53.8965 54.5061 54.839 54.2489 55.6632 53.7559C56.4873 53.263 57.1619 52.5531 57.6141 51.7029C57.7243 51.7029 58.4356 51.7331 58.686 51.7331C60.4342 51.7331 61.466 51.0382 61.9419 50.0764C63.0088 47.9312 63.7952 44.2149 61.6013 42.7445V42.7445ZM52.9707 52.4784C52.3248 52.4784 51.6934 52.2859 51.1563 51.9251C50.6192 51.5643 50.2006 51.0515 49.9534 50.4516C49.7063 49.8517 49.6416 49.1915 49.7676 48.5546C49.8936 47.9178 50.2046 47.3327 50.6614 46.8736C51.1181 46.4144 51.7001 46.1017 52.3336 45.975C52.9671 45.8483 53.6238 45.9133 54.2205 46.1618C54.8173 46.4103 55.3273 46.8312 55.6862 47.3711C56.0451 47.911 56.2366 48.5458 56.2366 49.1952C56.2353 50.0655 55.8908 50.8999 55.2786 51.5153C54.6664 52.1307 53.8365 52.4771 52.9707 52.4784V52.4784Z" fill="white"/>
<path d="M41.2698 14.8325C41.097 15.0157 41 15.2641 41 15.5232C41 15.7823 41.097 16.0307 41.2698 16.2139C41.4425 16.3971 41.6768 16.5 41.9211 16.5C42.1654 16.5 42.3996 16.3971 42.5724 16.2139C43.342 15.398 43.9525 14.4292 44.3691 13.3631C44.7856 12.2969 45 11.1541 45 10C45 8.84592 44.7856 7.70314 44.3691 6.63695C43.9525 5.57075 43.342 4.60202 42.5724 3.7861C42.4869 3.69539 42.3853 3.62344 42.2736 3.57435C42.1618 3.52527 42.042 3.5 41.9211 3.5C41.8001 3.5 41.6804 3.52527 41.5686 3.57435C41.4568 3.62344 41.3553 3.69539 41.2698 3.7861C41.1842 3.8768 41.1164 3.98449 41.0701 4.103C41.0238 4.22151 41 4.34853 41 4.4768C41 4.60508 41.0238 4.7321 41.0701 4.85061C41.1164 4.96912 41.1842 5.0768 41.2698 5.16751C41.8682 5.8021 42.3429 6.55548 42.6668 7.38465C42.9907 8.21381 43.1574 9.10251 43.1574 10C43.1574 10.8975 42.9907 11.7862 42.6668 12.6154C42.3429 13.4445 41.8682 14.1979 41.2698 14.8325V14.8325Z" fill="#53BE21"/>
<path d="M38.2774 14.1935C38.3652 14.2907 38.4695 14.3678 38.5843 14.4204C38.6991 14.4729 38.8222 14.5 38.9465 14.5C39.0707 14.5 39.1938 14.4729 39.3086 14.4204C39.4234 14.3678 39.5277 14.2907 39.6155 14.1935C40.502 13.2138 41 11.8852 41 10.4999C41 9.11455 40.502 7.78593 39.6155 6.80621C39.4381 6.61015 39.1974 6.5 38.9465 6.5C38.6955 6.5 38.4548 6.61015 38.2774 6.80621C38.0999 7.00227 38.0002 7.26819 38.0002 7.54547C38.0002 7.82274 38.0999 8.08866 38.2774 8.28472C38.8087 8.87247 39.1071 9.66919 39.1071 10.4999C39.1071 11.3306 38.8087 12.1273 38.2774 12.715C38.1894 12.8121 38.1197 12.9273 38.0721 13.0542C38.0245 13.181 38 13.317 38 13.4543C38 13.5916 38.0245 13.7276 38.0721 13.8544C38.1197 13.9813 38.1894 14.0965 38.2774 14.1935V14.1935Z" fill="#53BE21"/>
<path d="M43.2641 17.8418C43.1153 18.034 43.0376 18.2812 43.0464 18.5341C43.0552 18.7869 43.15 19.0268 43.3117 19.2057C43.4734 19.3847 43.6902 19.4895 43.9188 19.4993C44.1473 19.509 44.3708 19.423 44.5445 19.2584C46.7571 16.8092 48 13.4881 48 10.0253C48 6.56247 46.7571 3.24138 44.5445 0.792157C44.3743 0.605032 44.1442 0.5 43.9043 0.5C43.6644 0.5 43.4342 0.605032 43.2641 0.792157C43.0949 0.980399 43 1.23504 43 1.50047C43 1.76589 43.0949 2.02053 43.2641 2.20877C44.1921 3.23508 44.9283 4.45363 45.4306 5.79482C45.9329 7.136 46.1915 8.57353 46.1915 10.0253C46.1915 11.477 45.9329 12.9146 45.4306 14.2558C44.9283 15.5969 44.1921 16.8155 43.2641 17.8418Z" fill="#53BE21"/>
<path d="M30.2021 0.5H4.79792C3.52582 0.501303 2.3062 1.01353 1.4067 1.92428C0.507194 2.83503 0.00128689 4.0699 0 5.35789L0 58.6421C0.00128689 59.9301 0.507194 61.165 1.4067 62.0757C2.3062 62.9865 3.52582 63.4987 4.79792 63.5H30.2021C31.4742 63.4987 32.6938 62.9865 33.5933 62.0757C34.4928 61.165 34.9987 59.9301 35 58.6421V5.35789C34.9987 4.0699 34.4928 2.83503 33.5933 1.92428C32.6938 1.01353 31.4742 0.501303 30.2021 0.5V0.5ZM9.72222 2.46875H25.2778V3.45312C25.2818 3.5835 25.2594 3.71334 25.212 3.83462C25.1646 3.95591 25.0931 4.06607 25.002 4.1583C24.9109 4.25054 24.8021 4.3229 24.6823 4.37092C24.5626 4.41894 24.4343 4.4416 24.3056 4.4375H10.6944C10.5657 4.4416 10.4374 4.41894 10.3177 4.37092C10.1979 4.3229 10.0891 4.25054 9.99797 4.1583C9.90687 4.06607 9.8354 3.95591 9.78798 3.83462C9.74055 3.71334 9.71817 3.5835 9.72222 3.45312V2.46875ZM33.0556 58.6421C33.053 59.4076 32.7515 60.1409 32.217 60.6822C31.6824 61.2234 30.9581 61.5287 30.2021 61.5312H4.79792C4.04192 61.5287 3.31761 61.2234 2.78304 60.6822C2.24846 60.1409 1.94701 59.4076 1.94444 58.6421V5.35789C1.94701 4.59244 2.24846 3.85908 2.78304 3.31783C3.31761 2.77657 4.04192 2.47134 4.79792 2.46875H7.77778V3.45312C7.77388 3.84203 7.84666 4.22782 7.99185 4.58789C8.13705 4.94797 8.35174 5.27509 8.62336 5.5501C8.89498 5.82511 9.21806 6.04249 9.57369 6.1895C9.92931 6.33651 10.3103 6.4102 10.6944 6.40625H24.3056C24.6897 6.4102 25.0707 6.33651 25.4263 6.1895C25.7819 6.04249 26.105 5.82511 26.3766 5.5501C26.6483 5.27509 26.863 4.94797 27.0081 4.58789C27.1533 4.22782 27.2261 3.84203 27.2222 3.45312V2.46875H30.2021C30.9581 2.47134 31.6824 2.77657 32.217 3.31783C32.7515 3.85908 33.053 4.59244 33.0556 5.35789V58.6421Z" fill="white"/>
<path d="M14.5 30.5H21.5C22.6839 30.4696 23.8109 29.9858 24.6484 29.1484C25.4858 28.3109 25.9696 27.1839 26 26V21.5C25.9474 20.7217 25.6144 19.9888 25.0628 19.4372C24.5112 18.8856 23.7783 18.5526 23 18.5V15.5C23 12.465 21.035 10.5 18 10.5C14.965 10.5 13 12.465 13 15.5V18.5C12.2217 18.5526 11.4888 18.8856 10.9372 19.4372C10.3856 19.9888 10.0526 20.7217 10 21.5V26C10.0304 27.1839 10.5142 28.3109 11.3516 29.1484C12.1891 29.9858 13.3161 30.4696 14.5 30.5V30.5ZM15 15.5C15 13.565 16.065 12.5 18 12.5C19.935 12.5 21 13.565 21 15.5V18.5H15V15.5ZM12 21.5C12.0175 21.2406 12.1285 20.9963 12.3124 20.8124C12.4963 20.6285 12.7406 20.5175 13 20.5H23C23.2594 20.5175 23.5037 20.6285 23.6876 20.8124C23.8715 20.9963 23.9825 21.2406 24 21.5V26C23.9673 26.6525 23.6935 27.2696 23.2315 27.7315C22.7696 28.1935 22.1525 28.4673 21.5 28.5H14.5C13.8475 28.4673 13.2304 28.1935 12.7685 27.7315C12.3065 27.2696 12.0327 26.6525 12 26V21.5Z" fill="white"/>
<path d="M25 43.5H17V40.5C17 37.465 15.035 35.5 12 35.5C8.965 35.5 7 37.465 7 40.5V44.5C7 44.7652 7.10536 45.0196 7.29289 45.2071C7.48043 45.3946 7.73478 45.5 8 45.5C8.26522 45.5 8.51957 45.3946 8.70711 45.2071C8.89464 45.0196 9 44.7652 9 44.5V40.5C9 38.565 10.065 37.5 12 37.5C13.935 37.5 15 38.565 15 40.5V43.5C13.6 43.5 12 45.1 12 46.5V51C12.0304 52.1839 12.5142 53.3109 13.3516 54.1484C14.1891 54.9858 15.3161 55.4696 16.5 55.5H23.5C24.6839 55.4696 25.8109 54.9858 26.6484 54.1484C27.4858 53.3109 27.9696 52.1839 28 51V46.5C28 45.1 26.4 43.5 25 43.5ZM26 51C25.9673 51.6525 25.6935 52.2696 25.2315 52.7315C24.7696 53.1935 24.1525 53.4673 23.5 53.5H16.5C15.8475 53.4673 15.2304 53.1935 14.7685 52.7315C14.3065 52.2696 14.0327 51.6525 14 51V46.5C14.0834 46.2703 14.2161 46.0617 14.3889 45.8889C14.5617 45.7161 14.7703 45.5834 15 45.5H25C25.2297 45.5834 25.4383 45.7161 25.6111 45.8889C25.7839 46.0617 25.9166 46.2703 26 46.5V51Z" fill="white"/>
</svg>
