<svg width="65" height="64" viewBox="0 0 65 64" fill="none" xmlns="http://www.w3.org/2000/svg">
<path d="M49.142 0.5H39H38.9034H28.7614C20.2614 0.5 13.5 14.3716 13.5 32C13.5 34.4083 13.5966 36.8165 13.8864 39.0321V39.1284C13.8864 39.2248 13.8864 39.4174 13.983 39.5138C15.625 53.3853 21.517 63.5 28.7614 63.5H49.2386C57.7386 63.5 64.5 49.6284 64.5 32C64.5 14.3716 57.7386 0.5 49.142 0.5V0.5ZM28.7614 2.42661H33.6875C30.2102 5.02752 27.3125 10.133 25.5739 17.0688C22.7727 17.3578 19.9716 17.4541 17.267 17.3578C19.5852 8.49541 23.9318 2.42661 28.7614 2.42661V2.42661ZM27.1193 43.8486C27.1193 44.3303 26.733 44.7156 26.25 44.8119C23.1591 45.1009 19.9716 45.1973 16.7841 45.1973C16.4943 43.8486 16.2045 42.4037 16.0114 40.9587C16.108 41.0551 16.2045 41.1514 16.2045 41.2477C16.7841 41.922 17.6534 42.8853 19.1989 42.8853C20.7443 42.8853 21.6136 41.922 22.1932 41.2477C22.7727 40.5734 23.0625 40.2844 23.7386 40.2844C24.4148 40.2844 24.7045 40.5734 25.2841 41.2477C25.767 41.8257 26.3466 42.5 27.2159 42.789C27.2159 43.078 27.2159 43.4633 27.1193 43.8486V43.8486ZM25.8636 18.8991C26.25 18.8991 26.5398 19.0917 26.6364 19.1881C26.8295 19.3807 26.9261 19.6697 26.9261 19.9587C26.8295 21.0184 26.733 22.1743 26.733 23.2339C26.1534 22.5596 25.2841 21.5963 23.7386 21.5963C22.1932 21.5963 21.3239 22.5596 20.7443 23.3303C20.1648 24.0046 19.875 24.2936 19.1989 24.2936C18.5227 24.2936 18.233 24.0046 17.75 23.3303C17.3636 22.8486 16.8807 22.367 16.2045 21.9817C16.3977 21.1147 16.4943 20.1514 16.6875 19.2844C19.7784 19.2844 22.7727 19.1881 25.8636 18.8991V18.8991ZM15.5284 34.7936C15.8182 34.9862 16.0114 35.1789 16.3011 35.5642C16.8807 36.2385 17.75 37.2982 19.2955 37.2982C20.8409 37.2982 21.7102 36.3349 22.2898 35.6606C22.8693 34.9862 23.1591 34.6973 23.8352 34.6973C24.5114 34.6973 24.8011 34.9862 25.3807 35.6606C25.8636 36.2385 26.4432 36.9128 27.3125 37.2018C27.3125 38.3578 27.4091 39.5138 27.4091 40.5734C27.2159 40.3807 27.1193 40.2844 26.8295 39.9954C26.1534 39.2248 25.3807 38.2615 23.7386 38.2615C22.1932 38.2615 21.3239 39.2248 20.7443 39.8991C20.1648 40.5734 19.875 40.8624 19.1989 40.8624C18.5227 40.8624 18.233 40.5734 17.6534 39.8991C17.1705 39.3211 16.5909 38.6468 15.625 38.3578C15.625 37.2018 15.5284 36.0459 15.5284 34.7936V34.7936ZM26.733 34.3119C26.1534 33.6376 25.2841 32.6743 23.7386 32.6743C22.1932 32.6743 21.3239 33.6376 20.7443 34.4083C20.1648 35.0826 19.875 35.3716 19.1989 35.3716C18.5227 35.3716 18.233 35.0826 17.6534 34.4083C17.1705 33.8303 16.4943 32.9633 15.3352 32.7706C15.3352 32.4817 15.3352 32.289 15.3352 32C15.3352 31.0367 15.3352 30.1697 15.4318 29.2064C15.7216 29.3991 15.9148 29.5917 16.2045 29.9771C16.7841 30.6514 17.6534 31.711 19.1989 31.711C20.7443 31.711 21.6136 30.7477 22.1932 30.0734C22.7727 29.3991 23.0625 29.1101 23.7386 29.1101C24.4148 29.1101 24.7045 29.3991 25.2841 30.0734C25.6705 30.555 26.1534 31.133 26.9261 31.5184C26.9261 31.9037 26.9261 32.289 27.0227 32.578C27.0227 33.3486 27.1193 34.0229 27.1193 34.7936C27.0227 34.6973 26.9261 34.5046 26.733 34.3119V34.3119ZM26.8295 28.9174C26.8295 28.8211 26.733 28.8211 26.8295 28.9174C26.1534 28.1468 25.3807 27.1835 23.7386 27.1835C22.1932 27.1835 21.3239 28.1468 20.7443 28.9174C20.1648 29.5917 19.875 29.8807 19.1989 29.8807C18.5227 29.8807 18.233 29.5917 17.6534 28.9174C17.1705 28.3395 16.4943 27.5688 15.5284 27.3762C15.625 26.3165 15.7216 25.2569 15.8182 24.1972C15.9148 24.2936 16.0114 24.4862 16.2045 24.5826C16.7841 25.2569 17.6534 26.3165 19.1989 26.3165C20.7443 26.3165 21.6136 25.3532 22.1932 24.6789C22.7727 24.0046 23.0625 23.7156 23.7386 23.7156C24.4148 23.7156 24.7045 24.0046 25.1875 24.6789C25.5739 25.1606 25.9602 25.6422 26.6364 26.0275C26.733 26.7982 26.733 27.8578 26.8295 28.9174ZM17.3636 47.1239H18.7159C20.9375 47.1239 23.2557 47.0275 25.5739 46.8349C27.3125 53.867 30.2102 58.9725 33.6875 61.6697H28.7614C23.9318 61.5734 19.6818 55.6973 17.3636 47.1239V47.1239ZM39 61.5734C34.267 61.5734 29.7273 55.6973 27.4091 46.4495C28.375 46.0642 29.0511 45.1009 29.0511 44.0413C29.1477 43.367 29.1477 42.789 29.1477 42.1147C29.1477 42.0184 29.2443 41.922 29.2443 41.8257C29.2443 41.7294 29.2443 41.7294 29.2443 41.633C29.3409 38.5505 29.1477 35.3716 28.9545 32.3853C28.7614 28.3395 28.4716 24.1972 28.858 20.055C28.9545 19.1881 28.6648 18.3211 27.9886 17.7431C27.7955 17.5505 27.6023 17.4541 27.4091 17.3578C29.7273 8.30275 34.1705 2.42661 38.8068 2.33028H43.8295C38.0341 6.76147 33.9773 18.2248 33.9773 32C33.9773 45.7752 38.0341 57.2385 43.8295 61.5734H39ZM49.142 61.5734C41.9943 61.5734 35.9091 48.0872 35.9091 32C35.9091 15.9128 41.9943 2.42661 49.142 2.42661C56.3864 2.42661 62.4716 16.0092 62.4716 32C62.4716 47.9908 56.3864 61.5734 49.142 61.5734Z" fill="white"/>
<path d="M49.5 18.5C46.1 18.5 44.5 25.5393 44.5 32C44.5 38.4607 46.1 45.5 49.5 45.5C52.8 45.5 54.5 38.75 54.5 32C54.5 25.25 52.8 18.5 49.5 18.5ZM49.5 43.5714C48.5 43.5714 46.5 39.5214 46.5 32C46.5 24.4786 48.5 20.4286 49.5 20.4286C50.6 20.4286 52.5 24.8643 52.5 32C52.5 39.1357 50.6 43.5714 49.5 43.5714Z" fill="white"/>
<path d="M9.0215 39.7338L0.851618 45.7952C0.475991 46.0793 0.382084 46.7423 0.663805 47.1212C0.851618 47.4053 1.13334 47.5 1.41506 47.5C1.60287 47.5 1.79069 47.4053 1.9785 47.3106L10.1484 41.2491C10.524 40.965 10.6179 40.302 10.3362 39.9232C10.0545 39.4496 9.49104 39.3549 9.0215 39.7338V39.7338Z" fill="#53BE21"/>
<path d="M9.56542 31.5H1.43458C0.873832 31.5 0.5 31.9 0.5 32.5C0.5 33.1 0.873832 33.5 1.43458 33.5H9.56542C10.1262 33.5 10.5 33.1 10.5 32.5C10.5 31.9 10.1262 31.5 9.56542 31.5Z" fill="#53BE21"/>
<path d="M9.0215 24.3089C9.20931 24.4045 9.39713 24.5 9.58494 24.5C9.86666 24.5 10.1484 24.4045 10.3362 24.1179C10.6179 23.7358 10.524 23.0671 10.1484 22.7805L1.9785 16.6666C1.60287 16.38 0.945525 16.4756 0.663805 16.8577C0.382084 17.2398 0.475991 17.9085 0.851618 18.1951L9.0215 24.3089Z" fill="#53BE21"/>
</svg>
