<svg width="87" height="74" viewBox="0 0 87 74" fill="none" xmlns="http://www.w3.org/2000/svg">
<path d="M66.0025 58C63.2441 58 61 60.243 61 63C61 65.757 63.2441 68 66.0025 68C68.7582 68 71 65.757 71 63C71 60.243 68.7582 58 66.0025 58ZM66.0025 65.3249C64.7118 65.3249 63.6618 64.2819 63.6618 63C63.6618 61.7181 64.7118 60.6751 66.0025 60.6751C67.2905 60.6751 68.3382 61.7181 68.3382 63C68.3382 64.2819 67.2905 65.3249 66.0025 65.3249Z" fill="#53BE21"/>
<path d="M21 58C18.2429 58 16 60.243 16 63C16 65.757 18.2429 68 21 68C23.7571 68 26 65.757 26 63C26 60.243 23.7571 58 21 58ZM21 65.3249C19.7114 65.3249 18.6632 64.2819 18.6632 63C18.6632 61.7181 19.7114 60.6751 21 60.6751C22.2886 60.6751 23.3368 61.7181 23.3368 63C23.3368 64.2819 22.2886 65.3249 21 65.3249Z" fill="#53BE21"/>
<path d="M84.1244 54.9696V24.1403C84.1244 21.3844 81.8911 19.1423 79.1459 19.1423H71.7312V16.4213C71.7312 13.5108 69.3726 11.1428 66.4732 11.1428H64.5897C61.6931 11.1428 59.3365 13.5108 59.3365 16.4213V19.1423H53.8967C51.1515 19.1423 48.9181 21.3842 48.9181 24.1403V43.85L37.4556 27.9044C37.0439 27.3317 36.2472 27.2021 35.6764 27.6152C35.1055 28.0284 34.9764 28.8277 35.3881 29.4004L47.702 46.5302H43.2183C42.466 46.5302 41.7512 46.6927 41.1051 46.9826L17.4147 14.0242C19.3066 13.4792 20.8786 12.1766 21.7779 10.4671L31.9394 24.6027C32.1885 24.9494 32.5785 25.1335 32.9741 25.1335C33.2324 25.1335 33.4931 25.0551 33.7186 24.8919C34.2895 24.4788 34.4186 23.6794 34.0069 23.1067L22.5941 7.23033C22.5945 7.20509 22.596 7.1802 22.596 7.15496C22.596 3.20978 19.3816 0 15.4306 0C11.477 0 8.26048 3.20978 8.26048 7.15496C8.26048 8.39762 8.58048 9.56678 9.14197 10.5859V26.3922C7.4429 26.9356 6.20862 28.5344 6.20862 30.4177C6.20862 32.7468 8.09615 34.6418 10.4165 34.6418C12.1997 34.6418 13.6505 36.0858 13.6505 37.8608C13.6505 39.633 12.1997 41.075 10.4165 41.075C8.63333 41.075 7.18272 39.633 7.18272 37.8608C7.18272 37.1546 6.61206 36.582 5.90816 36.582C5.20427 36.582 4.63361 37.1546 4.63361 37.8608C4.63361 41.0433 7.22792 43.6326 10.4165 43.6326C13.6053 43.6326 16.1996 41.0433 16.1996 37.8608C16.1996 35.8811 15.197 34.1311 13.6728 33.0899C14.2672 32.3613 14.6246 31.4307 14.6246 30.4177C14.6246 28.5344 13.3903 26.9356 11.6912 26.3922V13.2528C12.5083 13.7529 13.4331 14.0934 14.422 14.2329L39.1012 48.5673C38.4229 49.4491 38.0181 50.5531 38.0181 51.7508V54.4136H29.6193C27.5663 52.4424 24.7796 51.2265 21.7118 51.2265C18.6454 51.2265 15.8599 52.4424 13.8077 54.4136H5.20495C2.33499 54.4137 0 56.7577 0 59.6389C0 62.5229 2.33499 64.869 5.20495 64.869H10.5285C11.5801 70.0709 16.1945 74 21.7116 74C27.2311 74 31.8474 70.0709 32.8995 64.869H40.5448C41.2487 64.869 41.8194 64.2965 41.8194 63.5902C41.8194 62.884 41.2487 62.3114 40.5448 62.3114H33.1176C33.0666 60.3726 32.5284 58.5538 31.6194 56.9713H39.2925H50.1927H50.1976H55.9873C55.0783 58.5538 54.5401 60.3726 54.4891 62.3114H46.0263C45.3224 62.3114 44.7517 62.884 44.7517 63.5902C44.7517 64.2965 45.3224 64.869 46.0263 64.869H54.7072C55.7593 70.0709 60.3755 74 65.8951 74C71.4124 74 76.0266 70.0709 77.0782 64.869H81.7901C84.6628 64.869 87 62.5229 87 59.6389C87 57.5991 85.8281 55.8298 84.1244 54.9696ZM12.0755 30.4179C12.0755 31.3367 11.3313 32.0844 10.4167 32.0844C9.50207 32.0844 8.7579 31.3367 8.7579 30.4179C8.7579 29.499 9.5019 28.7513 10.4167 28.7513C11.3315 28.7513 12.0755 29.499 12.0755 30.4179ZM10.8098 7.15514C10.8098 4.62022 12.8827 2.55777 15.4308 2.55777C17.9762 2.55777 20.0471 4.62022 20.0471 7.15514C20.0471 9.6875 17.9762 11.7477 15.4308 11.7477C12.8827 11.7476 10.8098 9.68733 10.8098 7.15514ZM10.3106 62.3113H5.20495C3.7404 62.3113 2.54911 61.1124 2.54911 59.6388C2.54911 58.168 3.74057 56.9712 5.20495 56.9712H11.808C10.8995 58.5536 10.3615 60.3724 10.3106 62.3113ZM21.7118 71.4424C16.8265 71.4424 12.8521 67.4817 12.8521 62.6132C12.8521 57.7448 16.8265 53.7841 21.7118 53.7841C26.5998 53.7841 30.5764 57.7448 30.5764 62.6132C30.5764 67.4817 26.5996 71.4424 21.7118 71.4424ZM48.9181 54.4138H40.5671V51.7509C40.5671 50.9274 40.9415 50.1903 41.5279 49.7015C41.5332 49.6975 41.538 49.6933 41.543 49.6892C42 49.3139 42.5831 49.0881 43.218 49.0881H48.918L48.9181 54.4138ZM61.8858 16.4215C61.8858 14.9212 63.0989 13.7005 64.5899 13.7005H66.4734C67.9671 13.7005 69.1822 14.9212 69.1822 16.4215V19.1424H61.886L61.8858 16.4215ZM51.4673 54.4138V47.8093V24.1403C51.4673 22.7947 52.5573 21.6999 53.8967 21.6999H60.6111H70.4564H79.1457C80.4853 21.6999 81.5752 22.7945 81.5752 24.1403V26.8756H68.8043C67.6951 26.8756 66.7929 27.7811 66.7929 28.8942V40.1048C66.7929 41.2179 67.6952 42.1236 68.8043 42.1236H81.5752V54.4136H73.8078C73.7351 54.3438 73.6612 54.2768 73.5867 54.2115C71.5568 52.3586 68.8561 51.2265 65.8949 51.2265C62.9386 51.2265 60.2413 52.3539 58.2119 54.2001C58.1328 54.269 58.0543 54.3396 57.9772 54.4136L51.4673 54.4138ZM81.5706 29.4332V39.566H69.342V29.4332H81.5706ZM65.8952 71.4424C61.0072 71.4424 57.0306 67.4817 57.0306 62.6132C57.0306 57.7448 61.0072 53.7841 65.8952 53.7841C68.1814 53.7841 70.268 54.6516 71.8413 56.0735C71.8472 56.0787 72.1647 56.3812 72.1742 56.3908C73.7682 57.9881 74.7549 60.1878 74.7549 62.6131C74.7549 67.4817 70.7805 71.4424 65.8952 71.4424ZM81.7903 62.3113H77.2964C77.2454 60.3724 76.7074 58.5536 75.7989 56.9712H81.7903C81.8741 56.9712 81.9567 56.9761 82.0384 56.9838C82.0534 56.9852 82.0682 56.9867 82.0831 56.9882C83.4129 57.135 84.4511 58.2672 84.4511 59.6388C84.4509 61.1124 83.2574 62.3113 81.7903 62.3113Z" fill="white"/>
<path d="M63.5 40.0094V28.9907C63.5 27.893 62.5885 27 61.4681 27H57.5319C56.4116 27 55.5 27.893 55.5 28.9907V40.0094C55.5 41.107 56.4114 42 57.5319 42H61.4681C62.5886 42 63.5 41.107 63.5 40.0094ZM60.9313 39.484H58.0687V29.516H60.9313V39.484Z" fill="white"/>
</svg>
