<svg width="67" height="66" viewBox="0 0 67 66" fill="none" xmlns="http://www.w3.org/2000/svg">
<g clip-path="url(#clip0_1498_12502)">
<path d="M15.2736 37.235C13.1331 36.9251 10.9779 36.7236 8.81647 36.6314C7.8687 36.5736 6.61942 37.0604 6.40307 39.4144C6.3627 40.0063 6.42069 40.6008 6.57476 41.1744C6.71832 41.7733 7.04199 42.3156 7.50344 42.7304C7.9649 43.1453 8.54267 43.4133 9.16124 43.4995L18.4003 44.781C18.4464 44.7885 18.4931 44.7922 18.5398 44.792C18.7203 44.7922 18.8978 44.7464 19.055 44.659C19.2122 44.5717 19.3438 44.4459 19.437 44.2937C19.5303 44.1415 19.582 43.9681 19.5872 43.7904C19.5924 43.6127 19.5509 43.4367 19.4667 43.2795C16.4279 37.5856 15.6491 37.3491 15.2736 37.235ZM9.45297 41.4576C9.25001 41.427 9.06104 41.3372 8.91049 41.1997C8.75993 41.0621 8.65473 40.8833 8.60849 40.6862C8.5111 40.333 8.4706 39.967 8.48845 39.6014C8.49176 39.2884 8.56365 38.9797 8.69922 38.6966H8.72853C11.1154 38.8437 13.7996 39.0569 14.5268 39.1834C15.3127 40.2193 16.0155 41.3139 16.6289 42.4572L9.45297 41.4576Z" fill="white"/>
<path d="M58.182 36.6312C56.0206 36.7235 53.8654 36.9249 51.7249 37.2348C51.3494 37.3489 50.5692 37.5854 47.5263 43.2848C47.442 43.442 47.4005 43.618 47.4057 43.7957C47.4109 43.9734 47.4626 44.1468 47.5559 44.299C47.6492 44.4512 47.7808 44.577 47.938 44.6644C48.0952 44.7517 48.2726 44.7975 48.4531 44.7973C48.4999 44.7975 48.5465 44.7938 48.5927 44.7863L57.8317 43.5048C58.4503 43.4186 59.028 43.1506 59.4895 42.7358C59.9509 42.3209 60.2746 41.7786 60.4182 41.1797C60.5718 40.606 60.6298 40.0116 60.5899 39.4197C60.3777 37.0602 59.1214 36.5748 58.182 36.6312ZM58.39 40.6861C58.3438 40.8831 58.2386 41.062 58.088 41.1995C57.9375 41.337 57.7485 41.4269 57.5456 41.4574L50.3696 42.4529C50.9834 41.3101 51.6857 40.2155 52.4703 39.1791C53.2101 39.0512 55.8971 38.8381 58.2826 38.6923C58.4348 38.9716 58.513 39.2842 58.5101 39.6012C58.528 39.9668 58.4875 40.3329 58.39 40.6861V40.6861Z" fill="white"/>
<path d="M47.9918 38.1951C47.8863 38.0467 47.7431 37.9282 47.5765 37.8515C47.4099 37.7748 47.2258 37.7425 47.0426 37.7579C46.9463 37.7661 37.3304 38.5829 33.503 38.5829C29.6756 38.5829 20.0583 37.7579 19.9634 37.7579C19.7801 37.742 19.5958 37.774 19.4291 37.8507C19.2624 37.9275 19.1192 38.0462 19.014 38.1949C18.9087 38.3436 18.8452 38.517 18.8298 38.6977C18.8144 38.8783 18.8477 39.0597 18.9263 39.2236L21.6831 44.9863C21.7637 45.1537 21.8885 45.2968 22.0444 45.4006C22.2003 45.5043 22.3816 45.565 22.5694 45.5761L33.4974 46.1921L44.4422 45.5761C44.63 45.5653 44.8115 45.5047 44.9675 45.4009C45.1234 45.2972 45.2481 45.1539 45.3285 44.9863L48.0853 39.2236C48.1633 39.0593 48.1957 38.8776 48.1793 38.697C48.1628 38.5163 48.0981 38.3432 47.9918 38.1951ZM43.6954 43.5576L33.5002 44.1379L23.3106 43.5576L21.5924 39.9661C24.606 40.2081 30.5801 40.6536 33.5044 40.6536C36.4287 40.6536 42.4042 40.2081 45.4192 39.9661L43.6954 43.5576Z" fill="white"/>
<path d="M39.5179 6.86648L41.0616 7.43573C41.5664 7.62161 42.0248 7.91197 42.406 8.28721C42.7872 8.66246 43.0822 9.11386 43.2712 9.61098L43.8491 11.1372C43.9245 11.3323 44.0583 11.5003 44.2328 11.6188C44.4073 11.7373 44.6143 11.8007 44.8262 11.8007C45.0381 11.8007 45.2451 11.7373 45.4196 11.6188C45.5941 11.5003 45.7279 11.3323 45.8033 11.1372L46.3812 9.61648C46.5704 9.11972 46.8654 8.66861 47.2463 8.29342C47.6271 7.91824 48.0851 7.62767 48.5894 7.44123L50.1332 6.87198C50.3312 6.7977 50.5017 6.66588 50.622 6.49399C50.7423 6.3221 50.8067 6.11825 50.8067 5.90948C50.8067 5.7007 50.7423 5.49685 50.622 5.32496C50.5017 5.15307 50.3312 5.02125 50.1332 4.94698L48.5894 4.37773C48.0847 4.19153 47.6265 3.90089 47.2456 3.5254C46.8646 3.14992 46.5699 2.69834 46.3812 2.2011L45.8089 0.669352C45.7335 0.474234 45.5997 0.306297 45.4252 0.187804C45.2507 0.0693116 45.0437 0.00585937 44.8318 0.00585938C44.6199 0.00585938 44.4129 0.0693116 44.2384 0.187804C44.0639 0.306297 43.9301 0.474234 43.8547 0.669352L43.2712 2.1901C43.0825 2.68734 42.7878 3.13892 42.4069 3.5144C42.0259 3.88989 41.5677 4.18053 41.063 4.36673L39.5192 4.93598C39.3212 5.01025 39.1507 5.14207 39.0304 5.31396C38.9101 5.48585 38.8457 5.6897 38.8457 5.89848C38.8457 6.10725 38.9101 6.3111 39.0304 6.48299C39.1507 6.65488 39.3212 6.7867 39.5192 6.86098L39.5179 6.86648ZM44.829 3.7576C45.3468 4.65044 46.0977 5.39056 47.0037 5.90123C46.0974 6.41152 45.3464 7.15173 44.829 8.04485C44.3104 7.15217 43.5591 6.41213 42.6529 5.90123C43.5591 5.39033 44.3104 4.65029 44.829 3.7576V3.7576Z" fill="#53BE21"/>
<path d="M51.2872 13.2675L52.457 13.6993C52.8055 13.8282 53.1221 14.0291 53.3852 14.2886C53.6484 14.5481 53.8521 14.86 53.9826 15.2035L54.4209 16.3558C54.4956 16.5526 54.6295 16.7222 54.8048 16.8419C54.98 16.9617 55.1882 17.0259 55.4015 17.0259C55.6147 17.0259 55.8229 16.9617 55.9982 16.8419C56.1734 16.7222 56.3073 16.5526 56.382 16.3558L56.8189 15.2035C56.9497 14.8599 57.1536 14.5479 57.417 14.2885C57.6804 14.029 57.9972 13.8281 58.346 13.6993L59.5157 13.2675C59.7132 13.1927 59.883 13.0607 60.0028 12.8889C60.1226 12.717 60.1867 12.5135 60.1867 12.305C60.1867 12.0966 60.1226 11.893 60.0028 11.7212C59.883 11.5494 59.7132 11.4174 59.5157 11.3425L58.346 10.9053C57.9974 10.7774 57.6809 10.5771 57.4179 10.318C57.1549 10.0589 56.9516 9.74714 56.8217 9.40379L56.382 8.25016C56.3073 8.05337 56.1734 7.88375 55.9982 7.764C55.8229 7.64425 55.6147 7.58008 55.4015 7.58008C55.1882 7.58008 54.98 7.64425 54.8048 7.764C54.6295 7.88375 54.4956 8.05337 54.4209 8.25016L53.9826 9.40379C53.8521 9.74712 53.6484 10.0589 53.3852 10.3182C53.122 10.5774 52.8055 10.7781 52.457 10.9067L51.2859 11.3384C51.0878 11.4127 50.9173 11.5445 50.797 11.7164C50.6767 11.8883 50.6123 12.0921 50.6123 12.3009C50.6123 12.5097 50.6767 12.7135 50.797 12.8854C50.9173 13.0573 51.0878 13.1891 51.2859 13.2634L51.2872 13.2675ZM55.4008 11.1377C55.7193 11.5903 56.1179 11.983 56.5775 12.2968C56.1189 12.6112 55.7205 13.0032 55.4008 13.4545C55.0819 13.0029 54.6839 12.6109 54.2255 12.2968C54.6846 11.9829 55.0827 11.5903 55.4008 11.1377Z" fill="#53BE21"/>
<path d="M57.8269 6.86635L58.9966 7.2981C59.345 7.42654 59.6614 7.627 59.9246 7.886C60.1877 8.145 60.3915 8.45652 60.5222 8.7996L60.9605 9.95185C61.0352 10.1486 61.1691 10.3183 61.3444 10.438C61.5196 10.5578 61.7278 10.6219 61.9411 10.6219C62.1544 10.6219 62.3626 10.5578 62.5378 10.438C62.713 10.3183 62.847 10.1486 62.9217 9.95185L63.3599 8.7996C63.4902 8.45631 63.6936 8.14452 63.9566 7.88527C64.2195 7.62601 64.5358 7.42532 64.8842 7.29672L66.0553 6.86497C66.2534 6.7907 66.4239 6.65888 66.5441 6.48699C66.6644 6.3151 66.7288 6.11125 66.7288 5.90247C66.7288 5.6937 66.6644 5.48985 66.5441 5.31796C66.4239 5.14607 66.2534 5.01425 66.0553 4.93997L64.8856 4.50685C64.5373 4.37848 64.221 4.17803 63.9581 3.91901C63.6951 3.65999 63.4917 3.34843 63.3613 3.00535L62.923 1.85172C62.8484 1.65494 62.7144 1.48531 62.5392 1.36556C62.3639 1.24581 62.1558 1.18164 61.9425 1.18164C61.7292 1.18164 61.521 1.24581 61.3458 1.36556C61.1705 1.48531 61.0366 1.65494 60.9619 1.85172L60.5236 3.00535C60.3931 3.34852 60.1893 3.66012 59.9262 3.91914C59.663 4.17816 59.3465 4.37857 58.998 4.50685L57.8269 4.93997C57.6288 5.01425 57.4583 5.14607 57.338 5.31796C57.2177 5.48985 57.1533 5.6937 57.1533 5.90247C57.1533 6.11125 57.2177 6.3151 57.338 6.48699C57.4583 6.65888 57.6288 6.7907 57.8269 6.86497V6.86635ZM61.9404 4.74335C62.26 5.19437 62.6578 5.58629 63.1157 5.9011C62.6578 6.21591 62.26 6.60783 61.9404 7.05885C61.6215 6.60725 61.2235 6.21521 60.7651 5.9011C61.2232 5.58663 61.6211 5.19465 61.9404 4.74335V4.74335Z" fill="#53BE21"/>
<path d="M63.9446 58.2598C63.6669 58.2598 63.4006 58.3684 63.2043 58.5618C63.008 58.7552 62.8977 59.0175 62.8977 59.291V63.5728C62.8977 63.6694 62.8587 63.7621 62.7893 63.8304C62.72 63.8988 62.6259 63.9372 62.5278 63.9372H57.0896C56.9915 63.9372 56.8974 63.8988 56.8281 63.8304C56.7587 63.7621 56.7197 63.6694 56.7197 63.5728V61.8073C56.7197 61.5338 56.6094 61.2715 56.4131 61.0781C56.2168 60.8847 55.9505 60.776 55.6729 60.776C55.3952 60.776 55.1289 60.8847 54.9326 61.0781C54.7363 61.2715 54.626 61.5338 54.626 61.8073V63.5728C54.6267 64.2162 54.8865 64.8331 55.3484 65.288C55.8102 65.743 56.4365 65.9989 57.0896 65.9997H62.5334C63.1865 65.9989 63.8128 65.743 64.2746 65.288C64.7365 64.8331 64.9963 64.2162 64.997 63.5728V59.291C64.997 59.1551 64.9698 59.0206 64.9168 58.8951C64.8638 58.7696 64.7862 58.6557 64.6884 58.5599C64.5906 58.464 64.4746 58.3882 64.3469 58.3367C64.2192 58.2852 64.0825 58.2591 63.9446 58.2598Z" fill="white"/>
<path d="M11.253 60.7746C10.9754 60.7746 10.7091 60.8833 10.5128 61.0767C10.3164 61.2701 10.2061 61.5324 10.2061 61.8059V63.5714C10.2061 63.6678 10.1674 63.7603 10.0983 63.8286C10.0292 63.8969 9.9355 63.9354 9.83764 63.9358H4.39389C4.29603 63.9354 4.2023 63.8969 4.13324 63.8286C4.06417 63.7603 4.02539 63.6678 4.02539 63.5714V59.291C4.02539 59.0175 3.9151 58.7552 3.71877 58.5618C3.52244 58.3684 3.25616 58.2598 2.97852 58.2598C2.70087 58.2598 2.43459 58.3684 2.23826 58.5618C2.04194 58.7552 1.93164 59.0175 1.93164 59.291V63.5728C1.93201 64.2156 2.19111 64.832 2.65215 65.287C3.11319 65.7419 3.73854 65.9982 4.3911 65.9996H9.83485C10.4879 65.9989 11.114 65.743 11.5756 65.2879C12.0372 64.8329 12.2967 64.2161 12.2971 63.5728V61.8073C12.2975 61.534 12.1877 61.2718 11.992 61.0781C11.7962 60.8845 11.5304 60.7754 11.253 60.7746Z" fill="white"/>
<path d="M64.8068 25.9257L61.3172 25.3317C60.8073 25.239 60.2807 25.3202 59.8239 25.5619C59.3672 25.8036 59.0077 26.1914 58.8047 26.6613L58.6163 27.0738L56.1428 21.3263C55.5837 20.0085 54.6914 18.8536 53.5508 17.9717C52.4102 17.0898 51.0594 16.5103 49.6271 16.2883C44.2899 15.4902 38.8979 15.1012 33.4996 15.1251C28.1013 15.1017 22.7093 15.4911 17.3722 16.2897C15.94 16.5115 14.5893 17.0908 13.4487 17.9725C12.3082 18.8541 11.4157 20.0087 10.8564 21.3263L8.37463 27.0793L8.19876 26.6751C7.9973 26.2031 7.63873 25.8128 7.18205 25.5684C6.72538 25.324 6.19783 25.24 5.68626 25.3303L2.19667 25.9257C1.63037 26.0182 1.1158 26.3057 0.744628 26.7371C0.373457 27.1684 0.169794 27.7156 0.169922 28.2811V28.9562C0.170445 29.5005 0.358949 30.0285 0.70445 30.4533C1.04995 30.8781 1.53189 31.1745 2.07105 31.2937L5.38476 32.0307L3.91634 34.2376C2.64398 36.1444 1.96701 38.3769 1.96915 40.6588V52.3876C1.96915 56.8137 5.09861 59.6751 9.94494 59.6751H57.0543C61.9007 59.6751 65.0301 56.8151 65.0301 52.3876V40.6533C65.0323 38.3714 64.3553 36.1389 63.0829 34.2321L61.6145 32.0321L64.917 31.2978C65.4578 31.18 65.9416 30.8843 66.289 30.4594C66.6363 30.0346 66.8264 29.5058 66.8279 28.9603V28.2852C66.8296 27.7197 66.6272 27.1721 66.2571 26.7399C65.8869 26.3078 65.3729 26.0192 64.8068 25.9257ZM2.5219 29.2752C2.44843 29.2589 2.38279 29.2184 2.33584 29.1604C2.28888 29.1024 2.26343 29.0304 2.26367 28.9562V28.2811C2.26254 28.2032 2.29025 28.1275 2.34164 28.0683C2.39302 28.0091 2.46455 27.9703 2.54284 27.9593L6.04778 27.3626C6.09694 27.3538 6.14765 27.363 6.1905 27.3882C6.23336 27.4135 6.26547 27.4532 6.28088 27.5001L7.13653 29.4058L6.61448 30.1896L2.5219 29.2752ZM62.9364 49.1838H6.71638C6.43873 49.1838 6.17246 49.2925 5.97613 49.4859C5.7798 49.6792 5.66951 49.9416 5.66951 50.2151C5.66951 50.4886 5.7798 50.7509 5.97613 50.9443C6.17246 51.1377 6.43873 51.2463 6.71638 51.2463H62.9364V52.3876C62.9364 55.6573 60.7379 57.6126 57.0543 57.6126H9.94494C6.26134 57.6126 4.0629 55.6587 4.0629 52.3876V40.6533C4.06144 38.7732 4.61899 36.9338 5.66671 35.3623L8.96646 30.4041H54.6395C54.9172 30.4041 55.1835 30.2954 55.3798 30.102C55.5761 29.9086 55.6864 29.6463 55.6864 29.3728C55.6864 29.0993 55.5761 28.837 55.3798 28.6436C55.1835 28.4502 54.9172 28.3416 54.6395 28.3416H10.1097L12.7841 22.1376C13.205 21.1422 13.8779 20.2697 14.7385 19.6034C15.5992 18.9371 16.6189 18.4992 17.7002 18.3316C22.9286 17.547 28.211 17.1645 33.4996 17.1876C38.7882 17.1632 44.0706 17.5443 49.2991 18.3274C50.3808 18.4955 51.4008 18.9339 52.2615 19.601C53.1222 20.2681 53.7948 21.1414 54.2152 22.1376L57.2749 29.2422C57.2986 29.299 57.3281 29.3534 57.3628 29.4044L61.3325 35.3678C62.3803 36.9393 62.9378 38.7787 62.9364 40.6588V49.1838ZM64.7342 28.9562C64.7341 29.0318 64.7076 29.1052 64.659 29.1638C64.6105 29.2224 64.5428 29.2627 64.4676 29.2779L60.389 30.1854L59.8669 29.4017L60.7282 27.4767C60.7475 27.435 60.7803 27.4008 60.8215 27.3794C60.8626 27.358 60.9098 27.3506 60.9557 27.3584L64.4536 27.9552C64.5319 27.9662 64.6034 28.005 64.6548 28.0642C64.7062 28.1234 64.7339 28.199 64.7328 28.2769L64.7342 28.9562Z" fill="white"/>
</g>
<defs>
<clipPath id="clip0_1498_12502">
<rect width="67" height="66" fill="white"/>
</clipPath>
</defs>
</svg>
