<svg width="60" height="66" viewBox="0 0 60 66" fill="none" xmlns="http://www.w3.org/2000/svg">
<path d="M15.9741 38.5C16.6954 38.5 17.4005 38.2763 18.0073 37.8456L34.4519 26.1948C36.037 25.0711 36.4721 22.883 35.4432 21.2141C34.928 20.38 34.1267 19.8022 33.1856 19.5892C32.2463 19.3741 31.2785 19.5512 30.4668 20.0858L13.6475 31.1601C12.8313 31.6973 12.2738 32.5281 12.0768 33.5C11.879 34.4713 12.0664 35.4611 12.603 36.2846L12.9789 36.8624C13.5175 37.6892 14.3389 38.247 15.2925 38.4334C15.5201 38.478 15.7477 38.5 15.9741 38.5ZM14.8716 35.5736L14.4957 34.9945C14.298 34.6923 14.229 34.3301 14.3025 33.9747C14.3747 33.6179 14.5789 33.3136 14.8768 33.1166L31.6967 22.0422C31.912 21.9011 32.1566 21.8285 32.4063 21.8285C32.5013 21.8285 32.5982 21.8385 32.6938 21.8605C33.0379 21.9384 33.3319 22.1507 33.5205 22.4563C33.8978 23.068 33.7384 23.8702 33.1576 24.2816L16.7136 35.9324C16.4203 36.1408 16.0678 36.2154 15.7191 36.1481C15.3692 36.0796 15.0681 35.8759 14.8716 35.5736Z" fill="black"/>
<path d="M60 42.7395C60 37.8306 53.0531 28.2413 50.8571 25.3322V16.4235C50.8571 14.1897 49.3791 12.3173 47.3617 11.684V7.63307C47.3617 5.354 45.5156 3.5 43.2477 3.5H36.5512C34.2833 3.5 32.4372 5.354 32.4372 7.63307V11.4357H31.7799C30.7866 11.4357 29.8266 11.73 29.0039 12.2884L7.86487 26.6106C5.44458 28.2505 4 30.9809 4 33.913V57.9014C4 62.0916 7.39271 65.5 11.5636 65.5H43.2935C47.4644 65.5 50.8577 62.0916 50.8577 57.9014V53.2953C56.0148 52.5686 60 48.1182 60 42.7395ZM34.7234 7.63307C34.7234 6.62066 35.5434 5.79615 36.5512 5.79615H43.2477C44.2554 5.79615 45.0755 6.62066 45.0755 7.63307V11.4357H34.7234V7.63307ZM43.2935 63.2038H11.563C8.65223 63.2038 6.28491 60.8249 6.28491 57.9014V33.913C6.28491 31.7449 7.35347 29.7267 9.14334 28.5139L30.283 14.1911C30.7264 13.8908 31.2437 13.7312 31.7799 13.7312H45.8929C47.3689 13.7312 48.5715 14.9394 48.5715 16.4228V24.5017C48.5427 24.5306 48.5028 24.5425 48.4773 24.5747C47.482 25.8551 38.7563 37.2439 38.7563 42.7395C38.7563 48.3502 43.0914 52.953 48.5715 53.3702V57.902C48.5715 60.8249 46.2042 63.2038 43.2935 63.2038ZM49.3785 51.1147C44.7825 51.1147 41.0425 47.3575 41.0425 42.7395C41.0425 39.1577 46.422 31.1635 49.3785 27.1763C52.3363 31.1629 57.7144 39.155 57.7144 42.7395C57.7144 47.3575 53.9738 51.1147 49.3785 51.1147Z" fill="black"/>
<path d="M14 17.5C16.2052 17.5 18 15.6011 18 13.2665C18 11.3223 15.6016 7.92004 14.8666 6.92361C14.45 6.3588 13.55 6.3588 13.1334 6.92361C12.3984 7.92004 10 11.3223 10 13.2665C10.0006 15.6011 11.7948 17.5 14 17.5ZM14 9.60851C14.9723 11.0972 15.8005 12.6671 15.8005 13.2665C15.8005 14.3169 14.9924 15.1721 14 15.1721C13.0082 15.1721 12.2001 14.3169 12.2001 13.2665C12.2001 12.6684 13.0277 11.0978 14 9.60851Z" fill="#53BE21"/>
<path d="M8 7.26652C8 5.32228 5.60164 1.92004 4.86658 0.923615C4.44997 0.358795 3.55003 0.358795 3.13342 0.923615C2.39836 1.92004 0 5.32228 0 7.26652C0 9.60106 1.79484 11.5 4 11.5C6.20516 11.5 8 9.60106 8 7.26652ZM4.00063 9.17212C3.00818 9.17212 2.20013 8.31689 2.20013 7.26652C2.20013 6.66839 3.02832 5.09782 4.00063 3.60784C4.97231 5.09715 5.8005 6.66706 5.8005 7.26652C5.8005 8.31756 4.99308 9.17212 4.00063 9.17212Z" fill="#53BE21"/>
<path d="M53.9234 40.5C53.3281 40.5 52.8462 40.9825 52.8462 41.5771C52.8462 43.6549 51.1552 45.3464 49.0766 45.3464C48.4813 45.3464 48 45.8283 48 46.4229C48 47.0175 48.4813 47.5 49.0766 47.5C52.3427 47.5 55 44.843 55 41.5771C55 40.9825 54.5187 40.5 53.9234 40.5Z" fill="black"/>
<path d="M39.87 55.5H16.13C15.5052 55.5 15 55.9475 15 56.4997C15 57.0519 15.5052 57.5 16.13 57.5H39.87C40.4948 57.5 41 57.0519 41 56.4997C41 55.9475 40.4948 55.5 39.87 55.5Z" fill="black"/>
</svg>
