<svg width="74" height="58" viewBox="0 0 74 58" fill="none" xmlns="http://www.w3.org/2000/svg">
<path fill-rule="evenodd" clip-rule="evenodd" d="M41.5484 16.9893C42.073 14.9182 39.4279 13.5864 38.0999 15.253L23.4381 33.6542C22.4017 34.955 23.3205 36.8862 24.9758 36.8862H32.1471L29.8522 47.0628C29.3894 49.1154 31.9953 50.3898 33.3086 48.7532L48.5553 29.7551C49.6822 28.3509 48.517 26.2821 46.743 26.5376L38.8412 27.6752L41.5484 16.9893ZM26.3468 34.2361L38.2498 19.2974L36.0504 27.9795C35.7028 29.3513 36.8494 30.639 38.2401 30.4388L45.4587 29.3995L33.0433 44.8697L34.8937 36.6642C35.1742 35.4205 34.2362 34.2361 32.9706 34.2361H26.3468Z" fill="#53BE21"/>
<path fill-rule="evenodd" clip-rule="evenodd" d="M26.2152 6.79651V2.48837C26.2152 1.39019 25.3239 0.5 24.2242 0.5H10.6188C9.51919 0.5 8.6278 1.39019 8.6278 2.48837V6.79651H1.99103C0.891418 6.79651 0 7.68671 0 8.78488V17.0698C0 18.1679 0.891418 19.0581 1.99103 19.0581H3.65022V55.5116C3.65022 56.6099 4.54161 57.5 5.64126 57.5H69.0224C70.1221 57.5 71.0135 56.6099 71.0135 55.5116V19.0581H72.009C73.1087 19.0581 74 18.1679 74 17.0698V8.78488C74 7.68671 73.1087 6.79651 72.009 6.79651H65.3722V2.48837C65.3722 1.39019 64.4809 0.5 63.3812 0.5H50.1076C49.008 0.5 48.1166 1.39019 48.1166 2.48837V6.79651H26.2152ZM11.2825 3.15116V6.79651H23.5605V3.15116H11.2825ZM6.30493 54.8488V19.0581H9.95516C10.6883 19.0581 11.2825 18.4647 11.2825 17.7326C11.2825 17.0004 10.6883 16.407 9.95516 16.407H2.65471V9.44767H71.3453V16.407H64.0448C63.3115 16.407 62.7175 17.0004 62.7175 17.7326C62.7175 18.4647 63.3115 19.0581 64.0448 19.0581H68.3587V54.8488H6.30493ZM50.7713 6.79651H62.7175V3.15116H50.7713V6.79651Z" fill="black"/>
</svg>
