<svg width="64" height="64" viewBox="0 0 64 64" fill="none" xmlns="http://www.w3.org/2000/svg">
<path d="M62.1013 42.7445C59.4064 40.9367 56.5913 40.3626 53.9015 39.8037C52.8396 39.5871 51.8328 39.3807 50.861 39.1037C49.1646 38.3282 47.5302 37.4225 45.9722 36.3945C44.5747 35.49 43.13 34.6613 41.6444 33.912L38.9345 32.5977C38.6941 32.4828 38.4181 32.4687 38.1673 32.5584C37.9165 32.6481 37.7114 32.8343 37.5971 33.076C37.4829 33.3178 37.4688 33.5952 37.5581 33.8474C37.6473 34.0995 37.8325 34.3057 38.073 34.4206C38.073 34.4206 38.8143 34.768 40.7729 35.7248C42.196 36.4419 43.5789 37.2371 44.9153 38.1067C45.4162 38.4189 45.9171 38.7361 46.418 39.0483H38.5038C38.2381 39.0483 37.9833 39.1544 37.7954 39.3433C37.6075 39.5322 37.502 39.7883 37.502 40.0555C37.502 40.3226 37.6075 40.5787 37.7954 40.7676C37.9833 40.9565 38.2381 41.0626 38.5038 41.0626H50.3952C51.397 41.3496 52.4739 41.5662 53.5008 41.7776C56.0053 42.2812 58.62 42.8301 61.0143 44.4163C61.8007 44.9199 61.6504 47.1708 60.7037 49.1146C60.303 49.6836 59.8372 49.7441 58.7402 49.7038C58.7402 49.5376 58.7652 49.3664 58.7652 49.2002C58.8096 48.4784 58.7064 47.7551 58.4622 47.0749C58.2179 46.3947 57.8377 45.772 57.345 45.2451C56.8522 44.7182 56.2574 44.2983 55.5971 44.0113C54.9369 43.7243 54.2251 43.5762 53.5058 43.5762C52.7864 43.5762 52.0747 43.7243 51.4144 44.0113C50.7541 44.2983 50.1593 44.7182 49.6666 45.2451C49.1738 45.772 48.7936 46.3947 48.5494 47.0749C48.3051 47.7551 48.202 48.4784 48.2463 49.2002V49.6282H38.5038C38.2381 49.6282 37.9833 49.7343 37.7954 49.9232C37.6075 50.1121 37.502 50.3683 37.502 50.6354C37.502 50.9025 37.6075 51.1586 37.7954 51.3475C37.9833 51.5364 38.2381 51.6425 38.5038 51.6425H48.7973C49.2385 52.4985 49.9039 53.2171 50.7217 53.7206C51.5395 54.2242 52.4786 54.4937 53.4375 54.4999C54.3965 54.5061 55.339 54.2489 56.1632 53.7559C56.9873 53.263 57.6619 52.5531 58.1141 51.7029C58.2243 51.7029 58.9356 51.7331 59.186 51.7331C60.9342 51.7331 61.966 51.0382 62.4419 50.0764C63.5088 47.9312 64.2952 44.2149 62.1013 42.7445ZM53.4707 52.4784C52.8248 52.4784 52.1934 52.2859 51.6563 51.9251C51.1192 51.5643 50.7006 51.0515 50.4534 50.4516C50.2063 49.8517 50.1416 49.1915 50.2676 48.5546C50.3936 47.9178 50.7046 47.3327 51.1614 46.8736C51.6181 46.4144 52.2001 46.1017 52.8336 45.975C53.4671 45.8483 54.1238 45.9133 54.7205 46.1618C55.3173 46.4103 55.8273 46.8312 56.1862 47.3711C56.5451 47.911 56.7366 48.5458 56.7366 49.1952C56.7353 50.0655 56.3908 50.8999 55.7786 51.5153C55.1664 52.1307 54.3365 52.4771 53.4707 52.4784Z" fill="black"/>
<path d="M41.7698 14.8325C41.597 15.0157 41.5 15.2641 41.5 15.5232C41.5 15.7823 41.597 16.0307 41.7698 16.2139C41.9425 16.3971 42.1768 16.5 42.4211 16.5C42.6654 16.5 42.8996 16.3971 43.0724 16.2139C43.842 15.398 44.4525 14.4292 44.8691 13.3631C45.2856 12.2969 45.5 11.1541 45.5 10C45.5 8.84592 45.2856 7.70314 44.8691 6.63695C44.4525 5.57075 43.842 4.60202 43.0724 3.7861C42.9869 3.69539 42.8853 3.62344 42.7736 3.57435C42.6618 3.52527 42.542 3.5 42.4211 3.5C42.3001 3.5 42.1804 3.52527 42.0686 3.57435C41.9568 3.62344 41.8553 3.69539 41.7698 3.7861C41.6842 3.8768 41.6164 3.98449 41.5701 4.103C41.5238 4.22151 41.5 4.34853 41.5 4.4768C41.5 4.60508 41.5238 4.7321 41.5701 4.85061C41.6164 4.96912 41.6842 5.0768 41.7698 5.16751C42.3682 5.8021 42.8429 6.55548 43.1668 7.38465C43.4907 8.21381 43.6574 9.10251 43.6574 10C43.6574 10.8975 43.4907 11.7862 43.1668 12.6154C42.8429 13.4445 42.3682 14.1979 41.7698 14.8325Z" fill="#53BE21"/>
<path d="M38.7774 14.1935C38.8652 14.2907 38.9695 14.3678 39.0843 14.4204C39.1991 14.4729 39.3222 14.5 39.4465 14.5C39.5707 14.5 39.6938 14.4729 39.8086 14.4204C39.9234 14.3678 40.0277 14.2907 40.1155 14.1935C41.002 13.2138 41.5 11.8852 41.5 10.4999C41.5 9.11455 41.002 7.78593 40.1155 6.80621C39.9381 6.61015 39.6974 6.5 39.4465 6.5C39.1955 6.5 38.9548 6.61015 38.7774 6.80621C38.5999 7.00227 38.5002 7.26819 38.5002 7.54547C38.5002 7.82274 38.5999 8.08866 38.7774 8.28472C39.3087 8.87247 39.6071 9.66919 39.6071 10.4999C39.6071 11.3306 39.3087 12.1273 38.7774 12.715C38.6894 12.8121 38.6197 12.9273 38.5721 13.0542C38.5245 13.181 38.5 13.317 38.5 13.4543C38.5 13.5916 38.5245 13.7276 38.5721 13.8544C38.6197 13.9813 38.6894 14.0965 38.7774 14.1935Z" fill="#53BE21"/>
<path d="M43.7641 17.8418C43.6153 18.034 43.5376 18.2812 43.5464 18.5341C43.5552 18.7869 43.65 19.0268 43.8117 19.2057C43.9734 19.3847 44.1902 19.4895 44.4188 19.4993C44.6473 19.509 44.8708 19.423 45.0445 19.2584C47.2571 16.8092 48.5 13.4881 48.5 10.0253C48.5 6.56247 47.2571 3.24138 45.0445 0.792157C44.8743 0.605032 44.6442 0.5 44.4043 0.5C44.1644 0.5 43.9342 0.605032 43.7641 0.792157C43.5949 0.980399 43.5 1.23504 43.5 1.50047C43.5 1.76589 43.5949 2.02053 43.7641 2.20877C44.6921 3.23508 45.4283 4.45363 45.9306 5.79482C46.4329 7.136 46.6915 8.57353 46.6915 10.0253C46.6915 11.477 46.4329 12.9146 45.9306 14.2558C45.4283 15.5969 44.6921 16.8155 43.7641 17.8418Z" fill="#53BE21"/>
<path d="M30.7021 0.5H5.29792C4.02583 0.501303 2.8062 1.01353 1.9067 1.92428C1.00719 2.83503 0.501287 4.0699 0.5 5.35789L0.5 58.6421C0.501287 59.9301 1.00719 61.165 1.9067 62.0757C2.8062 62.9865 4.02583 63.4987 5.29792 63.5H30.7021C31.9742 63.4987 33.1938 62.9865 34.0933 62.0757C34.9928 61.165 35.4987 59.9301 35.5 58.6421V5.35789C35.4987 4.0699 34.9928 2.83503 34.0933 1.92428C33.1938 1.01353 31.9742 0.501303 30.7021 0.5V0.5ZM10.2222 2.46875H25.7778V3.45312C25.7818 3.5835 25.7594 3.71334 25.712 3.83462C25.6646 3.95591 25.5931 4.06607 25.502 4.1583C25.4109 4.25054 25.3021 4.3229 25.1823 4.37092C25.0626 4.41894 24.9343 4.4416 24.8056 4.4375H11.1944C11.0657 4.4416 10.9374 4.41894 10.8177 4.37092C10.6979 4.3229 10.5891 4.25054 10.498 4.1583C10.4069 4.06607 10.3354 3.95591 10.288 3.83462C10.2406 3.71334 10.2182 3.5835 10.2222 3.45312V2.46875ZM33.5556 58.6421C33.553 59.4076 33.2515 60.1409 32.717 60.6822C32.1824 61.2234 31.4581 61.5287 30.7021 61.5312H5.29792C4.54192 61.5287 3.81761 61.2234 3.28304 60.6822C2.74846 60.1409 2.44701 59.4076 2.44444 58.6421V5.35789C2.44701 4.59244 2.74846 3.85908 3.28304 3.31783C3.81761 2.77657 4.54192 2.47134 5.29792 2.46875H8.27778V3.45312C8.27388 3.84203 8.34666 4.22782 8.49185 4.58789C8.63705 4.94797 8.85174 5.27509 9.12336 5.5501C9.39498 5.82511 9.71806 6.04249 10.0737 6.1895C10.4293 6.33651 10.8103 6.4102 11.1944 6.40625H24.8056C25.1897 6.4102 25.5707 6.33651 25.9263 6.1895C26.2819 6.04249 26.605 5.82511 26.8766 5.5501C27.1483 5.27509 27.363 4.94797 27.5081 4.58789C27.6533 4.22782 27.7261 3.84203 27.7222 3.45312V2.46875H30.7021C31.4581 2.47134 32.1824 2.77657 32.717 3.31783C33.2515 3.85908 33.553 4.59244 33.5556 5.35789V58.6421Z" fill="black"/>
<path d="M15 30.5H22C23.1839 30.4696 24.3109 29.9858 25.1484 29.1484C25.9858 28.3109 26.4696 27.1839 26.5 26V21.5C26.4474 20.7217 26.1144 19.9888 25.5628 19.4372C25.0112 18.8856 24.2783 18.5526 23.5 18.5V15.5C23.5 12.465 21.535 10.5 18.5 10.5C15.465 10.5 13.5 12.465 13.5 15.5V18.5C12.7217 18.5526 11.9888 18.8856 11.4372 19.4372C10.8856 19.9888 10.5526 20.7217 10.5 21.5V26C10.5304 27.1839 11.0142 28.3109 11.8516 29.1484C12.6891 29.9858 13.8161 30.4696 15 30.5ZM15.5 15.5C15.5 13.565 16.565 12.5 18.5 12.5C20.435 12.5 21.5 13.565 21.5 15.5V18.5H15.5V15.5ZM12.5 21.5C12.5175 21.2406 12.6285 20.9963 12.8124 20.8124C12.9963 20.6285 13.2406 20.5175 13.5 20.5H23.5C23.7594 20.5175 24.0037 20.6285 24.1876 20.8124C24.3715 20.9963 24.4825 21.2406 24.5 21.5V26C24.4673 26.6525 24.1935 27.2696 23.7315 27.7315C23.2696 28.1935 22.6525 28.4673 22 28.5H15C14.3475 28.4673 13.7304 28.1935 13.2685 27.7315C12.8065 27.2696 12.5327 26.6525 12.5 26V21.5Z" fill="black"/>
<path d="M25.5 43.5H17.5V40.5C17.5 37.465 15.535 35.5 12.5 35.5C9.465 35.5 7.5 37.465 7.5 40.5V44.5C7.5 44.7652 7.60536 45.0196 7.79289 45.2071C7.98043 45.3946 8.23478 45.5 8.5 45.5C8.76522 45.5 9.01957 45.3946 9.20711 45.2071C9.39464 45.0196 9.5 44.7652 9.5 44.5V40.5C9.5 38.565 10.565 37.5 12.5 37.5C14.435 37.5 15.5 38.565 15.5 40.5V43.5C14.1 43.5 12.5 45.1 12.5 46.5V51C12.5304 52.1839 13.0142 53.3109 13.8516 54.1484C14.6891 54.9858 15.8161 55.4696 17 55.5H24C25.1839 55.4696 26.3109 54.9858 27.1484 54.1484C27.9858 53.3109 28.4696 52.1839 28.5 51V46.5C28.5 45.1 26.9 43.5 25.5 43.5ZM26.5 51C26.4673 51.6525 26.1935 52.2696 25.7315 52.7315C25.2696 53.1935 24.6525 53.4673 24 53.5H17C16.3475 53.4673 15.7304 53.1935 15.2685 52.7315C14.8065 52.2696 14.5327 51.6525 14.5 51V46.5C14.5834 46.2703 14.7161 46.0617 14.8889 45.8889C15.0617 45.7161 15.2703 45.5834 15.5 45.5H25.5C25.7297 45.5834 25.9383 45.7161 26.1111 45.8889C26.2839 46.0617 26.4166 46.2703 26.5 46.5V51Z" fill="black"/>
</svg>
