<svg width="64" height="64" viewBox="0 0 64 64" fill="none" xmlns="http://www.w3.org/2000/svg">
<path d="M48.642 0.5H38.5H38.4034H28.2614C19.7614 0.5 13 14.3716 13 32C13 34.4083 13.0966 36.8165 13.3864 39.0321V39.1284C13.3864 39.2248 13.3864 39.4174 13.483 39.5138C15.125 53.3853 21.017 63.5 28.2614 63.5H48.7386C57.2386 63.5 64 49.6284 64 32C64 14.3716 57.2386 0.5 48.642 0.5ZM28.2614 2.42661H33.1875C29.7102 5.02752 26.8125 10.133 25.0739 17.0688C22.2727 17.3578 19.4716 17.4541 16.767 17.3578C19.0852 8.49541 23.4318 2.42661 28.2614 2.42661ZM26.6193 43.8486C26.6193 44.3303 26.233 44.7156 25.75 44.8119C22.6591 45.1009 19.4716 45.1973 16.2841 45.1973C15.9943 43.8486 15.7045 42.4037 15.5114 40.9587C15.608 41.055 15.7045 41.1514 15.7045 41.2477C16.2841 41.922 17.1534 42.8853 18.6989 42.8853C20.2443 42.8853 21.1136 41.922 21.6932 41.2477C22.2727 40.5734 22.5625 40.2844 23.2386 40.2844C23.9148 40.2844 24.2045 40.5734 24.7841 41.2477C25.267 41.8257 25.8466 42.5 26.7159 42.789C26.7159 43.078 26.7159 43.4633 26.6193 43.8486ZM25.3636 18.8991C25.75 18.8991 26.0398 19.0917 26.1364 19.1881C26.3295 19.3807 26.4261 19.6697 26.4261 19.9587C26.3295 21.0184 26.233 22.1743 26.233 23.2339C25.6534 22.5596 24.7841 21.5963 23.2386 21.5963C21.6932 21.5963 20.8239 22.5596 20.2443 23.3303C19.6648 24.0046 19.375 24.2936 18.6989 24.2936C18.0227 24.2936 17.733 24.0046 17.25 23.3303C16.8636 22.8486 16.3807 22.367 15.7045 21.9817C15.8977 21.1147 15.9943 20.1514 16.1875 19.2844C19.2784 19.2844 22.2727 19.1881 25.3636 18.8991ZM15.0284 34.7936C15.3182 34.9862 15.5114 35.1789 15.8011 35.5642C16.3807 36.2385 17.25 37.2982 18.7955 37.2982C20.3409 37.2982 21.2102 36.3349 21.7898 35.6606C22.3693 34.9862 22.6591 34.6973 23.3352 34.6973C24.0114 34.6973 24.3011 34.9862 24.8807 35.6606C25.3636 36.2385 25.9432 36.9128 26.8125 37.2018C26.8125 38.3578 26.9091 39.5138 26.9091 40.5734C26.7159 40.3807 26.6193 40.2844 26.3295 39.9954C25.6534 39.2248 24.8807 38.2615 23.2386 38.2615C21.6932 38.2615 20.8239 39.2248 20.2443 39.8991C19.6648 40.5734 19.375 40.8624 18.6989 40.8624C18.0227 40.8624 17.733 40.5734 17.1534 39.8991C16.6705 39.3211 16.0909 38.6468 15.125 38.3578C15.125 37.2018 15.0284 36.0459 15.0284 34.7936ZM26.233 34.3119C25.6534 33.6376 24.7841 32.6743 23.2386 32.6743C21.6932 32.6743 20.8239 33.6376 20.2443 34.4083C19.6648 35.0826 19.375 35.3716 18.6989 35.3716C18.0227 35.3716 17.733 35.0826 17.1534 34.4083C16.6705 33.8303 15.9943 32.9633 14.8352 32.7706C14.8352 32.4817 14.8352 32.289 14.8352 32C14.8352 31.0367 14.8352 30.1697 14.9318 29.2064C15.2216 29.3991 15.4148 29.5917 15.7045 29.9771C16.2841 30.6514 17.1534 31.711 18.6989 31.711C20.2443 31.711 21.1136 30.7477 21.6932 30.0734C22.2727 29.3991 22.5625 29.1101 23.2386 29.1101C23.9148 29.1101 24.2045 29.3991 24.7841 30.0734C25.1705 30.555 25.6534 31.133 26.4261 31.5184C26.4261 31.9037 26.4261 32.289 26.5227 32.578C26.5227 33.3486 26.6193 34.0229 26.6193 34.7936C26.5227 34.6973 26.4261 34.5046 26.233 34.3119ZM26.3295 28.9174C26.233 28.8211 26.3295 28.8211 26.3295 28.9174C25.6534 28.1468 24.8807 27.1835 23.2386 27.1835C21.6932 27.1835 20.8239 28.1468 20.2443 28.9174C19.6648 29.5917 19.375 29.8807 18.6989 29.8807C18.0227 29.8807 17.733 29.5917 17.1534 28.9174C16.6705 28.3395 15.9943 27.5688 15.0284 27.3762C15.125 26.3165 15.2216 25.2569 15.3182 24.1972C15.4148 24.2936 15.5114 24.4862 15.7045 24.5826C16.2841 25.2569 17.1534 26.3165 18.6989 26.3165C20.2443 26.3165 21.1136 25.3532 21.6932 24.6789C22.2727 24.0046 22.5625 23.7156 23.2386 23.7156C23.9148 23.7156 24.2045 24.0046 24.6875 24.6789C25.0739 25.1606 25.4602 25.6422 26.1364 26.0275C26.233 26.7982 26.233 27.8578 26.3295 28.9174ZM16.8636 47.1239H18.2159C20.4375 47.1239 22.7557 47.0275 25.0739 46.8349C26.8125 53.867 29.7102 58.9725 33.1875 61.6697H28.2614C23.4318 61.5734 19.1818 55.6973 16.8636 47.1239ZM38.5 61.5734C33.767 61.5734 29.2273 55.6973 26.9091 46.4495C27.875 46.0642 28.5511 45.1009 28.5511 44.0413C28.6477 43.367 28.6477 42.789 28.6477 42.1147C28.6477 42.0184 28.7443 41.922 28.7443 41.8257C28.7443 41.7294 28.7443 41.7294 28.7443 41.633C28.8409 38.5505 28.6477 35.3716 28.4545 32.3853C28.2614 28.3395 27.9716 24.1973 28.358 20.055C28.4545 19.1881 28.1648 18.3211 27.4886 17.7431C27.2955 17.5505 27.1023 17.4541 26.9091 17.3578C29.2273 8.30275 33.6705 2.42661 38.3068 2.33028H43.3295C37.5341 6.76147 33.4773 18.2248 33.4773 32C33.4773 45.7752 37.5341 57.2385 43.3295 61.5734H38.5ZM48.642 61.5734C41.4943 61.5734 35.4091 48.0872 35.4091 32C35.4091 15.9128 41.4943 2.42661 48.642 2.42661C55.8864 2.42661 61.9716 16.0092 61.9716 32C61.9716 47.9908 55.8864 61.5734 48.642 61.5734Z" fill="black"/>
<path d="M49 18.5C45.6 18.5 44 25.5393 44 32C44 38.4607 45.6 45.5 49 45.5C52.3 45.5 54 38.75 54 32C54 25.25 52.3 18.5 49 18.5ZM49 43.5714C48 43.5714 46 39.5214 46 32C46 24.4786 48 20.4286 49 20.4286C50.1 20.4286 52 24.8643 52 32C52 39.1357 50.1 43.5714 49 43.5714Z" fill="black"/>
<path d="M8.5215 39.7338L0.351618 45.7952C-0.0240086 46.0793 -0.117916 46.7423 0.163805 47.1212C0.351618 47.4053 0.633338 47.5 0.915058 47.5C1.10287 47.5 1.29069 47.4053 1.4785 47.3106L9.64838 41.2491C10.024 40.965 10.1179 40.302 9.83619 39.9232C9.55447 39.4496 8.99104 39.3549 8.5215 39.7338Z" fill="#53BE21"/>
<path d="M9.06542 31.5H0.934579C0.373832 31.5 0 31.9 0 32.5C0 33.1 0.373832 33.5 0.934579 33.5H9.06542C9.62617 33.5 10 33.1 10 32.5C10 31.9 9.62617 31.5 9.06542 31.5Z" fill="#53BE21"/>
<path d="M8.5215 24.3089C8.70932 24.4045 8.89713 24.5 9.08494 24.5C9.36666 24.5 9.64838 24.4045 9.83619 24.1179C10.1179 23.7358 10.024 23.0671 9.64838 22.7805L1.4785 16.6666C1.10287 16.38 0.445525 16.4756 0.163805 16.8577C-0.117916 17.2398 -0.0240086 17.9085 0.351618 18.1951L8.5215 24.3089Z" fill="#53BE21"/>
</svg>
