<svg width="88" height="74" viewBox="0 0 88 74" fill="none" xmlns="http://www.w3.org/2000/svg">
<path d="M66.5025 58C63.7441 58 61.5 60.243 61.5 63C61.5 65.757 63.7441 68 66.5025 68C69.2582 68 71.5 65.757 71.5 63C71.5 60.243 69.2582 58 66.5025 58ZM66.5025 65.3249C65.2118 65.3249 64.1618 64.2819 64.1618 63C64.1618 61.7181 65.2118 60.6751 66.5025 60.6751C67.7905 60.6751 68.8382 61.7181 68.8382 63C68.8382 64.2819 67.7905 65.3249 66.5025 65.3249Z" fill="#53BE21"/>
<path d="M21.5 58C18.7429 58 16.5 60.243 16.5 63C16.5 65.757 18.7429 68 21.5 68C24.2571 68 26.5 65.757 26.5 63C26.5 60.243 24.2571 58 21.5 58ZM21.5 65.3249C20.2114 65.3249 19.1632 64.2819 19.1632 63C19.1632 61.7181 20.2114 60.6751 21.5 60.6751C22.7886 60.6751 23.8368 61.7181 23.8368 63C23.8368 64.2819 22.7886 65.3249 21.5 65.3249Z" fill="#53BE21"/>
<path d="M84.6244 54.9696V24.1403C84.6244 21.3844 82.3911 19.1423 79.6459 19.1423H72.2312V16.4213C72.2312 13.5108 69.8726 11.1428 66.9732 11.1428H65.0897C62.1931 11.1428 59.8365 13.5108 59.8365 16.4213V19.1423H54.3967C51.6515 19.1423 49.4181 21.3842 49.4181 24.1403V43.85L37.9556 27.9044C37.5439 27.3317 36.7472 27.2021 36.1764 27.6152C35.6055 28.0284 35.4764 28.8277 35.8881 29.4004L48.202 46.5302H43.7183C42.966 46.5302 42.2512 46.6927 41.6051 46.9826L17.9147 14.0242C19.8066 13.4792 21.3786 12.1766 22.2779 10.4671L32.4394 24.6027C32.6885 24.9494 33.0785 25.1335 33.4741 25.1335C33.7324 25.1335 33.9931 25.0551 34.2186 24.8919C34.7895 24.4788 34.9186 23.6794 34.5069 23.1067L23.0941 7.23033C23.0945 7.20509 23.096 7.1802 23.096 7.15496C23.096 3.20978 19.8816 0 15.9306 0C11.977 0 8.76048 3.20978 8.76048 7.15496C8.76048 8.39762 9.08048 9.56678 9.64196 10.5859V26.3922C7.9429 26.9356 6.70862 28.5344 6.70862 30.4177C6.70862 32.7468 8.59615 34.6418 10.9165 34.6418C12.6997 34.6418 14.1505 36.0858 14.1505 37.8608C14.1505 39.633 12.6997 41.075 10.9165 41.075C9.13333 41.075 7.68272 39.633 7.68272 37.8608C7.68272 37.1546 7.11206 36.582 6.40816 36.582C5.70427 36.582 5.13361 37.1546 5.13361 37.8608C5.13361 41.0433 7.72792 43.6326 10.9165 43.6326C14.1053 43.6326 16.6996 41.0433 16.6996 37.8608C16.6996 35.8811 15.697 34.1311 14.1728 33.0899C14.7672 32.3613 15.1246 31.4307 15.1246 30.4177C15.1246 28.5344 13.8903 26.9356 12.1912 26.3922V13.2528C13.0083 13.7529 13.9331 14.0934 14.922 14.2329L39.6012 48.5672C38.9229 49.4491 38.5181 50.5531 38.5181 51.7508V54.4136H30.1193C28.0663 52.4424 25.2796 51.2265 22.2118 51.2265C19.1454 51.2265 16.3599 52.4424 14.3077 54.4136H5.70495C2.83499 54.4137 0.5 56.7577 0.5 59.6389C0.5 62.5229 2.83499 64.869 5.70495 64.869H11.0285C12.0801 70.0709 16.6945 74 22.2116 74C27.7311 74 32.3474 70.0709 33.3995 64.869H41.0448C41.7487 64.869 42.3194 64.2965 42.3194 63.5902C42.3194 62.884 41.7487 62.3114 41.0448 62.3114H33.6176C33.5666 60.3726 33.0284 58.5538 32.1194 56.9713H39.7925H50.6927H50.6976H56.4873C55.5783 58.5538 55.0401 60.3726 54.9891 62.3114H46.5263C45.8224 62.3114 45.2517 62.884 45.2517 63.5902C45.2517 64.2965 45.8224 64.869 46.5263 64.869H55.2072C56.2593 70.0709 60.8755 74 66.3951 74C71.9124 74 76.5266 70.0709 77.5782 64.869H82.2901C85.1628 64.869 87.5 62.5229 87.5 59.6389C87.5 57.5991 86.3281 55.8298 84.6244 54.9696ZM12.5755 30.4179C12.5755 31.3367 11.8313 32.0844 10.9167 32.0844C10.0021 32.0844 9.2579 31.3367 9.2579 30.4179C9.2579 29.499 10.0019 28.7513 10.9167 28.7513C11.8315 28.7513 12.5755 29.499 12.5755 30.4179ZM11.3098 7.15514C11.3098 4.62021 13.3827 2.55777 15.9308 2.55777C18.4762 2.55777 20.5471 4.62021 20.5471 7.15514C20.5471 9.6875 18.4762 11.7477 15.9308 11.7477C13.3827 11.7476 11.3098 9.68733 11.3098 7.15514ZM10.8106 62.3113H5.70495C4.2404 62.3113 3.04911 61.1124 3.04911 59.6388C3.04911 58.168 4.24057 56.9712 5.70495 56.9712H12.308C11.3995 58.5536 10.8615 60.3724 10.8106 62.3113ZM22.2118 71.4424C17.3265 71.4424 13.3521 67.4817 13.3521 62.6132C13.3521 57.7448 17.3265 53.7841 22.2118 53.7841C27.0998 53.7841 31.0764 57.7448 31.0764 62.6132C31.0764 67.4817 27.0996 71.4424 22.2118 71.4424ZM49.4181 54.4137H41.0671V51.7509C41.0671 50.9274 41.4415 50.1903 42.0279 49.7015C42.0332 49.6975 42.038 49.6933 42.043 49.6892C42.5 49.3139 43.0831 49.0881 43.718 49.0881H49.418L49.4181 54.4137ZM62.3858 16.4215C62.3858 14.9212 63.5989 13.7005 65.0899 13.7005H66.9734C68.4671 13.7005 69.6822 14.9212 69.6822 16.4215V19.1424H62.386L62.3858 16.4215ZM51.9673 54.4137V47.8093V24.1403C51.9673 22.7947 53.0573 21.6999 54.3967 21.6999H61.1111H70.9564H79.6457C80.9853 21.6999 82.0751 22.7945 82.0751 24.1403V26.8756H69.3043C68.1951 26.8756 67.2929 27.7811 67.2929 28.8942V40.1048C67.2929 41.2179 68.1952 42.1236 69.3043 42.1236H82.0751V54.4136H74.3078C74.2351 54.3438 74.1612 54.2768 74.0867 54.2115C72.0568 52.3586 69.3561 51.2265 66.3949 51.2265C63.4386 51.2265 60.7413 52.3539 58.7119 54.2001C58.6328 54.269 58.5543 54.3396 58.4772 54.4136L51.9673 54.4137ZM82.0706 29.4332V39.566H69.842V29.4332H82.0706ZM66.3952 71.4424C61.5072 71.4424 57.5306 67.4817 57.5306 62.6132C57.5306 57.7448 61.5072 53.7841 66.3952 53.7841C68.6814 53.7841 70.768 54.6516 72.3413 56.0735C72.3472 56.0787 72.6647 56.3812 72.6742 56.3908C74.2682 57.9881 75.2549 60.1878 75.2549 62.6131C75.2549 67.4817 71.2805 71.4424 66.3952 71.4424ZM82.2903 62.3113H77.7964C77.7454 60.3724 77.2074 58.5536 76.2989 56.9712H82.2903C82.3741 56.9712 82.4567 56.9761 82.5384 56.9838C82.5534 56.9852 82.5682 56.9867 82.5831 56.9882C83.9129 57.135 84.9511 58.2672 84.9511 59.6388C84.9509 61.1124 83.7574 62.3113 82.2903 62.3113Z" fill="black"/>
<path d="M64 40.0094V28.9907C64 27.893 63.0885 27 61.9681 27H58.0319C56.9116 27 56 27.893 56 28.9907V40.0094C56 41.107 56.9114 42 58.0319 42H61.9681C63.0886 42 64 41.107 64 40.0094ZM61.4313 39.484H58.5687V29.516H61.4313V39.484Z" fill="black"/>
</svg>
