<svg width="68" height="66" viewBox="0 0 68 66" fill="none" xmlns="http://www.w3.org/2000/svg">
<g clip-path="url(#clip0_1_18581)">
<path d="M15.7731 37.235C13.6326 36.9251 11.4774 36.7236 9.31598 36.6314C8.36821 36.5736 7.11894 37.0604 6.90258 39.4144C6.86221 40.0063 6.92021 40.6008 7.07427 41.1744C7.21783 41.7733 7.5415 42.3156 8.00295 42.7304C8.46441 43.1453 9.04218 43.4133 9.66075 43.4995L18.8998 44.781C18.9459 44.7885 18.9926 44.7922 19.0394 44.792C19.2198 44.7922 19.3973 44.7464 19.5545 44.659C19.7117 44.5717 19.8433 44.4459 19.9365 44.2937C20.0298 44.1415 20.0815 43.9681 20.0867 43.7904C20.0919 43.6127 20.0504 43.4367 19.9662 43.2795C16.9275 37.5856 16.1486 37.3491 15.7731 37.235ZM9.95248 41.4576C9.74952 41.427 9.56055 41.3372 9.41 41.1997C9.25945 41.0621 9.15424 40.8833 9.108 40.6862C9.01061 40.333 8.97011 39.967 8.98796 39.6014C8.99127 39.2884 9.06316 38.9797 9.19873 38.6966H9.22804C11.6149 38.8437 14.2991 39.0569 15.0263 39.1834C15.8122 40.2193 16.5151 41.3139 17.1285 42.4572L9.95248 41.4576Z" fill="black"/>
<path d="M58.6825 36.6312C56.5211 36.7235 54.3659 36.9249 52.2254 37.2348C51.8499 37.3489 51.0697 37.5854 48.0267 43.2848C47.9425 43.442 47.901 43.618 47.9062 43.7957C47.9114 43.9734 47.9631 44.1468 48.0564 44.299C48.1497 44.4512 48.2813 44.577 48.4385 44.6644C48.5957 44.7517 48.7731 44.7975 48.9536 44.7973C49.0003 44.7975 49.047 44.7938 49.0932 44.7863L58.3322 43.5048C58.9507 43.4186 59.5285 43.1506 59.99 42.7358C60.4514 42.3209 60.7751 41.7786 60.9187 41.1797C61.0723 40.606 61.1302 40.0116 61.0904 39.4197C60.8782 37.0602 59.6219 36.5748 58.6825 36.6312ZM58.8905 40.6861C58.8443 40.8831 58.7391 41.062 58.5885 41.1995C58.438 41.337 58.249 41.4269 58.046 41.4574L50.8701 42.4529C51.4838 41.3101 52.1862 40.2155 52.9708 39.1791C53.7106 39.0512 56.3976 38.8381 58.783 38.6923C58.9352 38.9716 59.0135 39.2842 59.0106 39.6012C59.0285 39.9668 58.988 40.3329 58.8905 40.6861Z" fill="black"/>
<path d="M48.4918 38.1951C48.3863 38.0467 48.2431 37.9282 48.0765 37.8515C47.9099 37.7748 47.7258 37.7425 47.5426 37.7579C47.4463 37.7661 37.8304 38.5829 34.003 38.5829C30.1756 38.5829 20.5583 37.7579 20.4634 37.7579C20.2801 37.742 20.0958 37.774 19.9291 37.8507C19.7624 37.9275 19.6192 38.0462 19.514 38.1949C19.4087 38.3436 19.3452 38.517 19.3298 38.6977C19.3144 38.8783 19.3477 39.0597 19.4263 39.2236L22.1831 44.9863C22.2637 45.1537 22.3885 45.2968 22.5444 45.4006C22.7003 45.5043 22.8816 45.565 23.0694 45.5761L33.9974 46.1921L44.9422 45.5761C45.13 45.5653 45.3115 45.5047 45.4675 45.4009C45.6234 45.2972 45.7481 45.1539 45.8285 44.9863L48.5853 39.2236C48.6633 39.0593 48.6957 38.8776 48.6793 38.697C48.6628 38.5163 48.5981 38.3432 48.4918 38.1951ZM44.1954 43.5576L34.0002 44.1379L23.8106 43.5576L22.0924 39.9661C25.106 40.2081 31.0801 40.6536 34.0044 40.6536C36.9287 40.6536 42.9042 40.2081 45.9192 39.9661L44.1954 43.5576Z" fill="black"/>
<path d="M40.0174 6.86648L41.5612 7.43573C42.0659 7.62161 42.5244 7.91197 42.9055 8.28721C43.2867 8.66246 43.5817 9.11386 43.7708 9.61098L44.3486 11.1372C44.424 11.3323 44.5579 11.5003 44.7323 11.6188C44.9068 11.7373 45.1138 11.8007 45.3257 11.8007C45.5377 11.8007 45.7446 11.7373 45.9191 11.6188C46.0936 11.5003 46.2274 11.3323 46.3028 11.1372L46.8807 9.61648C47.0699 9.11972 47.3649 8.66861 47.7458 8.29342C48.1267 7.91824 48.5846 7.62767 49.0889 7.44123L50.6327 6.87198C50.8308 6.7977 51.0012 6.66588 51.1215 6.49399C51.2418 6.3221 51.3062 6.11825 51.3062 5.90948C51.3062 5.7007 51.2418 5.49685 51.1215 5.32496C51.0012 5.15307 50.8308 5.02125 50.6327 4.94698L49.0889 4.37773C48.5842 4.19153 48.126 3.90089 47.7451 3.5254C47.3641 3.14992 47.0694 2.69834 46.8807 2.2011L46.3084 0.669352C46.233 0.474234 46.0992 0.306297 45.9247 0.187804C45.7502 0.0693116 45.5432 0.00585937 45.3313 0.00585938C45.1194 0.00585938 44.9124 0.0693116 44.7379 0.187804C44.5634 0.306297 44.4296 0.474234 44.3542 0.669352L43.7708 2.1901C43.5821 2.68734 43.2873 3.13892 42.9064 3.5144C42.5254 3.88989 42.0672 4.18053 41.5626 4.36673L40.0188 4.93598C39.8207 5.01025 39.6502 5.14207 39.5299 5.31396C39.4096 5.48585 39.3452 5.6897 39.3452 5.89848C39.3452 6.10725 39.4096 6.3111 39.5299 6.48299C39.6502 6.65488 39.8207 6.7867 40.0188 6.86098L40.0174 6.86648ZM45.3285 3.7576C45.8463 4.65044 46.5972 5.39056 47.5032 5.90123C46.5969 6.41152 45.846 7.15173 45.3285 8.04485C44.8099 7.15217 44.0586 6.41213 43.1524 5.90123C44.0586 5.39033 44.8099 4.65029 45.3285 3.7576Z" fill="#53BE21"/>
<path d="M51.7872 13.2675L52.957 13.6993C53.3055 13.8282 53.6221 14.0291 53.8852 14.2886C54.1484 14.5481 54.3521 14.86 54.4826 15.2035L54.9209 16.3558C54.9956 16.5526 55.1295 16.7222 55.3048 16.8419C55.48 16.9617 55.6882 17.0259 55.9015 17.0259C56.1147 17.0259 56.3229 16.9617 56.4982 16.8419C56.6734 16.7222 56.8073 16.5526 56.882 16.3558L57.3189 15.2035C57.4497 14.8599 57.6536 14.5479 57.917 14.2885C58.1804 14.029 58.4972 13.8281 58.846 13.6993L60.0157 13.2675C60.2132 13.1927 60.383 13.0607 60.5028 12.8889C60.6226 12.717 60.6867 12.5135 60.6867 12.305C60.6867 12.0966 60.6226 11.893 60.5028 11.7212C60.383 11.5494 60.2132 11.4174 60.0157 11.3425L58.846 10.9053C58.4974 10.7774 58.1809 10.5771 57.9179 10.318C57.6549 10.0589 57.4516 9.74714 57.3217 9.40379L56.882 8.25016C56.8073 8.05337 56.6734 7.88375 56.4982 7.764C56.3229 7.64425 56.1147 7.58008 55.9015 7.58008C55.6882 7.58008 55.48 7.64425 55.3048 7.764C55.1295 7.88375 54.9956 8.05337 54.9209 8.25016L54.4826 9.40379C54.3521 9.74712 54.1484 10.0589 53.8852 10.3182C53.622 10.5774 53.3055 10.7781 52.957 10.9067L51.7859 11.3384C51.5878 11.4127 51.4173 11.5445 51.297 11.7164C51.1767 11.8883 51.1123 12.0921 51.1123 12.3009C51.1123 12.5097 51.1767 12.7135 51.297 12.8854C51.4173 13.0573 51.5878 13.1891 51.7859 13.2634L51.7872 13.2675ZM55.9008 11.1377C56.2193 11.5903 56.6179 11.983 57.0775 12.2968C56.6189 12.6112 56.2205 13.0032 55.9008 13.4545C55.5819 13.0029 55.1839 12.6109 54.7255 12.2968C55.1846 11.9829 55.5827 11.5903 55.9008 11.1377Z" fill="#53BE21"/>
<path d="M58.3264 6.86635L59.4961 7.2981C59.8445 7.42654 60.1609 7.627 60.4241 7.886C60.6872 8.145 60.891 8.45652 61.0217 8.7996L61.46 9.95185C61.5347 10.1486 61.6686 10.3183 61.8439 10.438C62.0191 10.5578 62.2273 10.6219 62.4406 10.6219C62.6539 10.6219 62.8621 10.5578 63.0373 10.438C63.2125 10.3183 63.3465 10.1486 63.4212 9.95185L63.8595 8.7996C63.9897 8.45631 64.1931 8.14452 64.4561 7.88527C64.719 7.62601 65.0353 7.42532 65.3837 7.29672L66.5548 6.86497C66.7529 6.7907 66.9234 6.65888 67.0437 6.48699C67.1639 6.3151 67.2284 6.11125 67.2284 5.90247C67.2284 5.6937 67.1639 5.48985 67.0437 5.31796C66.9234 5.14607 66.7529 5.01425 66.5548 4.93997L65.3851 4.50685C65.0368 4.37848 64.7205 4.17803 64.4576 3.91901C64.1947 3.65999 63.9912 3.34843 63.8609 3.00535L63.4226 1.85172C63.3479 1.65494 63.2139 1.48531 63.0387 1.36556C62.8635 1.24581 62.6553 1.18164 62.442 1.18164C62.2287 1.18164 62.0205 1.24581 61.8453 1.36556C61.67 1.48531 61.5361 1.65494 61.4614 1.85172L61.0231 3.00535C60.8926 3.34852 60.6888 3.66012 60.4257 3.91914C60.1625 4.17816 59.846 4.37857 59.4975 4.50685L58.3264 4.93997C58.1283 5.01425 57.9578 5.14607 57.8375 5.31796C57.7172 5.48985 57.6528 5.6937 57.6528 5.90247C57.6528 6.11125 57.7172 6.3151 57.8375 6.48699C57.9578 6.65888 58.1283 6.7907 58.3264 6.86497V6.86635ZM62.4399 4.74335C62.7595 5.19437 63.1573 5.58629 63.6152 5.9011C63.1573 6.21591 62.7595 6.60783 62.4399 7.05885C62.121 6.60725 61.723 6.21521 61.2646 5.9011C61.7227 5.58663 62.1207 5.19465 62.4399 4.74335Z" fill="#53BE21"/>
<path d="M64.4446 58.2598C64.1669 58.2598 63.9006 58.3684 63.7043 58.5618C63.508 58.7552 63.3977 59.0175 63.3977 59.291V63.5728C63.3977 63.6694 63.3587 63.7621 63.2893 63.8304C63.22 63.8988 63.1259 63.9372 63.0278 63.9372H57.5896C57.4915 63.9372 57.3974 63.8988 57.3281 63.8304C57.2587 63.7621 57.2197 63.6694 57.2197 63.5728V61.8073C57.2197 61.5338 57.1094 61.2715 56.9131 61.0781C56.7168 60.8847 56.4505 60.776 56.1729 60.776C55.8952 60.776 55.6289 60.8847 55.4326 61.0781C55.2363 61.2715 55.126 61.5338 55.126 61.8073V63.5728C55.1267 64.2162 55.3865 64.8331 55.8484 65.288C56.3102 65.743 56.9365 65.9989 57.5896 65.9997H63.0334C63.6865 65.9989 64.3128 65.743 64.7746 65.288C65.2365 64.8331 65.4963 64.2162 65.497 63.5728V59.291C65.497 59.1551 65.4698 59.0206 65.4168 58.8951C65.3638 58.7696 65.2862 58.6557 65.1884 58.5599C65.0906 58.464 64.9746 58.3882 64.8469 58.3367C64.7192 58.2852 64.5825 58.2591 64.4446 58.2598Z" fill="black"/>
<path d="M11.753 60.7746C11.4754 60.7746 11.2091 60.8833 11.0128 61.0767C10.8164 61.2701 10.7061 61.5324 10.7061 61.8059V63.5714C10.7061 63.6678 10.6674 63.7603 10.5983 63.8286C10.5292 63.8969 10.4355 63.9354 10.3376 63.9358H4.89389C4.79603 63.9354 4.7023 63.8969 4.63324 63.8286C4.56417 63.7603 4.52539 63.6678 4.52539 63.5714V59.291C4.52539 59.0175 4.4151 58.7552 4.21877 58.5618C4.02244 58.3684 3.75616 58.2598 3.47852 58.2598C3.20087 58.2598 2.93459 58.3684 2.73826 58.5618C2.54194 58.7552 2.43164 59.0175 2.43164 59.291V63.5728C2.43201 64.2156 2.69111 64.832 3.15215 65.287C3.61319 65.7419 4.23854 65.9982 4.8911 65.9996H10.3348C10.9879 65.9989 11.614 65.743 12.0756 65.2879C12.5372 64.8329 12.7967 64.2161 12.7971 63.5728V61.8073C12.7975 61.534 12.6877 61.2718 12.492 61.0781C12.2962 60.8845 12.0304 60.7754 11.753 60.7746Z" fill="black"/>
<path d="M65.3073 25.9257L61.8177 25.3317C61.3078 25.239 60.7811 25.3202 60.3244 25.5619C59.8677 25.8036 59.5082 26.1914 59.3052 26.6613L59.1167 27.0738L56.6433 21.3263C56.0842 20.0085 55.1918 18.8536 54.0513 17.9717C52.9107 17.0898 51.5599 16.5103 50.1276 16.2883C44.7904 15.4902 39.3984 15.1012 34.0001 15.1251C28.6018 15.1017 23.2098 15.4911 17.8727 16.2897C16.4405 16.5115 15.0898 17.0908 13.9492 17.9725C12.8087 18.8541 11.9162 20.0087 11.3569 21.3263L8.87512 27.0793L8.69924 26.6751C8.49779 26.2031 8.13921 25.8128 7.68254 25.5684C7.22587 25.324 6.69832 25.24 6.18674 25.3303L2.69716 25.9257C2.13086 26.0182 1.61629 26.3057 1.24512 26.7371C0.873945 27.1684 0.670282 27.7156 0.67041 28.2811V28.9562C0.670933 29.5005 0.859437 30.0285 1.20494 30.4533C1.55044 30.8781 2.03238 31.1745 2.57154 31.2937L5.88524 32.0307L4.41683 34.2376C3.14447 36.1444 2.46749 38.3769 2.46964 40.6588V52.3876C2.46964 56.8137 5.5991 59.6751 10.4454 59.6751H57.5548C62.4011 59.6751 65.5306 56.8151 65.5306 52.3876V40.6533C65.5327 38.3714 64.8558 36.1389 63.5834 34.2321L62.115 32.0321L65.4175 31.2978C65.9583 31.18 66.4421 30.8843 66.7895 30.4594C67.1368 30.0346 67.3269 29.5058 67.3284 28.9603V28.2852C67.33 27.7197 67.1277 27.1721 66.7575 26.7399C66.3874 26.3078 65.8734 26.0192 65.3073 25.9257ZM3.02239 29.2752C2.94891 29.2589 2.88328 29.2184 2.83632 29.1604C2.78937 29.1024 2.76391 29.0304 2.76416 28.9562V28.2811C2.76302 28.2032 2.79074 28.1275 2.84213 28.0683C2.89351 28.0091 2.96504 27.9703 3.04333 27.9593L6.54826 27.3626C6.59743 27.3538 6.64813 27.363 6.69099 27.3882C6.73385 27.4135 6.76596 27.4532 6.78137 27.5001L7.63701 29.4058L7.11497 30.1896L3.02239 29.2752ZM63.4368 49.1838H7.21687C6.93922 49.1838 6.67294 49.2925 6.47662 49.4859C6.28029 49.6792 6.16999 49.9416 6.16999 50.2151C6.16999 50.4886 6.28029 50.7509 6.47662 50.9443C6.67294 51.1377 6.93922 51.2463 7.21687 51.2463H63.4368V52.3876C63.4368 55.6573 61.2384 57.6126 57.5548 57.6126H10.4454C6.76183 57.6126 4.56339 55.6587 4.56339 52.3876V40.6533C4.56193 38.7732 5.11948 36.9338 6.1672 35.3623L9.46695 30.4041H55.14C55.4177 30.4041 55.6839 30.2954 55.8803 30.102C56.0766 29.9086 56.1869 29.6463 56.1869 29.3728C56.1869 29.0993 56.0766 28.837 55.8803 28.6436C55.6839 28.4502 55.4177 28.3416 55.14 28.3416H10.6101L13.2846 22.1376C13.7055 21.1422 14.3784 20.2697 15.239 19.6034C16.0997 18.9371 17.1194 18.4992 18.2007 18.3316C23.4291 17.547 28.7115 17.1645 34.0001 17.1876C39.2886 17.1632 44.5711 17.5443 49.7996 18.3274C50.8813 18.4955 51.9013 18.9339 52.762 19.601C53.6227 20.2681 54.2953 21.1414 54.7157 22.1376L57.7753 29.2422C57.7991 29.299 57.8285 29.3534 57.8633 29.4044L61.833 35.3678C62.8808 36.9393 63.4383 38.7787 63.4368 40.6588V49.1838ZM65.2347 28.9562C65.2346 29.0318 65.2081 29.1052 65.1595 29.1638C65.1109 29.2224 65.0433 29.2627 64.9681 29.2779L60.8895 30.1854L60.3674 29.4017L61.2286 27.4767C61.248 27.435 61.2808 27.4008 61.322 27.3794C61.3631 27.358 61.4103 27.3506 61.4562 27.3584L64.9541 27.9552C65.0324 27.9662 65.1039 28.005 65.1553 28.0642C65.2067 28.1234 65.2344 28.199 65.2333 28.2769L65.2347 28.9562Z" fill="black"/>
</g>
<defs>
<clipPath id="clip0_1_18581">
<rect width="67" height="66" fill="white" transform="translate(0.5)"/>
</clipPath>
</defs>
</svg>
